;TYPE=PLATED
;Layer: PTH_Through_Via
;EasyEDA Pro v3.2.148, 2026-08-12 23:51:55
;Gerber Generator version 0.3
M48
METRIC,LZ,0000.00000
;Hole size 1 = 0.30500 METRIC
T01C0.30500
%
G05
G90
T01
X1.12036Y-11.413
X0.61236Y-70.595
X-13.50907Y-130.18242
X3.15236Y-19.033
X3.15236Y-68.817
X6.235Y-154.074
X-1.639Y-103.274
X-1.639Y-94.638
X7.374Y-72.858
X7.254Y-89.219
X-18.80036Y-26.653
X-17.27636Y-72.881
X-17.27636Y-109.965
X0.86636Y-26.653
X-2.18164Y-62.467
X-36.812Y-119.721
X-36.05Y-97.21589
X-19.243Y-73.57203
X-6.46301Y-73.71422
X-1.89101Y-71.68222
X13.096Y-62.803
X-4.93901Y-93.62998
X-9.25701Y-95.66198
X-16.2831Y-13.93025
X0.14683Y-15.223
X7.27474Y-40.623
X3.97274Y-41.639
X13.85599Y-84.73324
X7.22277Y-116.24993
X13.31877Y-118.78993
X2.13636Y-46.96646
X2.39036Y-24.10646
X-8.361Y-81.61021
X-16.76836Y-21.573
X-10.16436Y-73.135
X-10.16436Y-74.659
X-17.958Y-114.337
X-16.942Y-48.805
X-16.688Y-47.027
X-4.32236Y-114.791
X-13.91213Y-91.60805
X2.08987Y-50.71405
X1.32787Y-39.28405
X0.10436Y-83.549
X-2.25802Y-85.581
X-11.8201Y-94.12708
X-11.8201Y-94.96545
X-16.76836Y-39.353
X-16.76836Y-36.813
X0.50364Y-71.357
X-1.52836Y-93.455
X-21.81943Y-11.94993
X0.86636Y-19.033
X-16.76836Y-16.493
X-17.27636Y-29.193
X13.52188Y-90.59723
X-3.49612Y-85.92721
X-12.24493Y-89.85002
X-33.43012Y-33.76425
M30