;TYPE=PLATED
;Layer: PTH_Through
;EasyEDA Pro v3.2.148, 2026-08-12 23:51:55
;Gerber Generator version 0.3
M48
METRIC,LZ,0000.00000
;Hole size 1 = 0.30500 METRIC
T01C0.30500
;Hole size 2 = 0.91440 METRIC
T02C0.91440
;Hole size 3 = 1.00000 METRIC
T03C1.00000
;Hole size 4 = 1.10002 METRIC
T04C1.10002
;Hole size 5 = 1.19990 METRIC
T05C1.19990
;Hole size 6 = 1.30002 METRIC
T06C1.30002
;Hole size 7 = 1.50002 METRIC
T07C1.50002
;Hole size 8 = 1.52400 METRIC
T08C1.52400
;Hole size 9 = 1.80000 METRIC
T09C1.80000
;Hole size 10 = 2.00000 METRIC
T10C2.00000
;Hole size 11 = 3.00000 METRIC
T11C3.00000
%
G05
G90
T01
X1.12036Y-11.413
X0.61236Y-70.595
X-13.50907Y-130.18242
X3.15236Y-19.033
X3.15236Y-68.817
X6.235Y-154.074
X-1.639Y-103.274
X-1.639Y-94.638
X7.374Y-72.858
X7.254Y-89.219
X-18.80036Y-26.653
X-17.27636Y-72.881
X-17.27636Y-109.965
X0.86636Y-26.653
X-2.18164Y-62.467
X-36.812Y-119.721
X-36.05Y-97.21589
X-19.243Y-73.57203
X-6.46301Y-73.71422
X-1.89101Y-71.68222
X13.096Y-62.803
X-4.93901Y-93.62998
X-9.25701Y-95.66198
X-16.2831Y-13.93025
X0.14683Y-15.223
X7.27474Y-40.623
X3.97274Y-41.639
X13.85599Y-84.73324
X7.22277Y-116.24993
X13.31877Y-118.78993
X2.13636Y-46.96646
X2.39036Y-24.10646
X-8.361Y-81.61021
X-16.76836Y-21.573
X-10.16436Y-73.135
X-10.16436Y-74.659
X-17.958Y-114.337
X-16.942Y-48.805
X-16.688Y-47.027
X-4.32236Y-114.791
X-13.91213Y-91.60805
X2.08987Y-50.71405
X1.32787Y-39.28405
X0.10436Y-83.549
X-2.25802Y-85.581
X-11.8201Y-94.12708
X-11.8201Y-94.96545
X-16.76836Y-39.353
X-16.76836Y-36.813
X0.50364Y-71.357
X-1.52836Y-93.455
X-21.81943Y-11.94993
X0.86636Y-19.033
X-16.76836Y-16.493
X-17.27636Y-29.193
X13.52188Y-90.59723
X-3.49612Y-85.92721
X-12.24493Y-89.85002
X-33.43012Y-33.76425
T02
X-19.482Y-164.883
X-36.572Y-160.565
X-34.032Y-160.565
X-31.492Y-160.565
X-28.95305Y-160.565
X-36.572Y-216.445
X-31.492Y-216.445
X13.4279Y-160.565
X15.9679Y-160.565
X18.5079Y-160.565
X21.04685Y-160.565
X13.4279Y-216.445
X18.5079Y-216.445
T03
X17.942Y-124.44
X12.862Y-124.44
X18.146Y-97.665
X13.066Y-97.665
X10.302Y-70.931
X10.302Y-65.851
X17.534Y-41.616
X12.454Y-41.616
X-31.732Y-125.817
X-36.812Y-125.817
X-31.732Y-98.328
X-36.812Y-98.328
X-24.98Y-70.431
X-19.9Y-70.431
X-31.987Y-42.534
X-37.067Y-42.534
X-22.858Y-154.479
X-27.938Y-154.479
X12.077Y-154.836
X6.997Y-154.836
X-3.172Y-64.056
X-8.252Y-64.056
T04
X-30.46213Y-35.79625
X-32.96213Y-35.79625
X-35.46212Y-35.79625
X-30.46213Y-63.66708
X-32.96213Y-63.66708
X-35.46212Y-63.66708
X-30.46213Y-91.62802
X-32.96213Y-91.62802
X-35.46212Y-91.62802
X-30.46213Y-119.53069
X-32.96213Y-119.53069
X-35.46212Y-119.53069
X19.53787Y-119.53069
X17.03787Y-119.53069
X14.53788Y-119.53069
X19.53787Y-91.61323
X17.03787Y-91.61323
X14.53788Y-91.61323
X19.53787Y-63.71844
X17.03787Y-63.71844
X14.53788Y-63.71844
X19.53787Y-35.79625
X17.03787Y-35.79625
X14.53788Y-35.79625
X-5.09913Y-80.59421
X-7.59913Y-80.59421
X-10.09912Y-80.59421
T05
X-19.00893Y-111.74994
X-12.50907Y-111.74994
X-12.50907Y-116.25006
X-19.00893Y-116.25006
X-2.33193Y-111.74994
X4.16793Y-111.74994
X4.16793Y-116.25006
X-2.33193Y-116.25006
X-32.71606Y-11.94993
X-32.71606Y-5.45007
X-28.21594Y-5.45007
X-28.21594Y-11.94993
X16.81006Y-5.45007
X16.81006Y-11.94993
X12.30994Y-11.94993
X12.30994Y-5.45007
X-13.50894Y-204.25007
X-13.50894Y-210.74993
X-18.00906Y-210.74993
X-18.00906Y-204.25007
X3.16806Y-204.25007
X3.16806Y-210.74993
X-1.33206Y-210.74993
X-1.33206Y-204.25007
X-13.50894Y-159.75007
X-13.50894Y-166.24993
X-18.00906Y-166.24993
X-18.00906Y-159.75007
X3.16806Y-159.75007
X3.16806Y-166.24993
X-1.33206Y-166.24993
X-1.33206Y-159.75007
T06
X-35.50213Y-147.99605
X-32.96213Y-147.99605
X-30.42213Y-147.99605
X-35.50213Y-133.49595
X-30.42213Y-133.49595
X14.49787Y-147.99608
X17.03787Y-147.99608
X19.57787Y-147.99608
X14.49787Y-133.49598
X19.57787Y-133.49598
T07
X-27.46214Y-139.74595G85X-27.46214Y-141.24592
X-38.46212Y-139.74595G85X-38.46212Y-141.24592
X22.53786Y-139.74598G85X22.53786Y-141.24595
X11.53788Y-139.74598G85X11.53788Y-141.24595
T08
X-32.762Y-170.725
X-32.762Y-203.745
X17.2379Y-170.725
X17.2379Y-203.745
T09
X-27.87913Y-28.56622G85X-27.87913Y-29.26624
X-38.04213Y-28.44622G85X-38.04213Y-29.14625
X-27.87913Y-56.43705G85X-27.87913Y-57.13707
X-38.04213Y-56.31706G85X-38.04213Y-57.01708
X-27.87913Y-84.39799G85X-27.87913Y-85.09801
X-38.04213Y-84.278G85X-38.04213Y-84.97802
X-27.87913Y-112.30065G85X-27.87913Y-113.00068
X-38.04213Y-112.18066G85X-38.04213Y-112.88069
X22.12087Y-112.30065G85X22.12087Y-113.00068
X11.95787Y-112.18066G85X11.95787Y-112.88069
X22.12087Y-84.3832G85X22.12087Y-85.08322
X11.95787Y-84.26321G85X11.95787Y-84.96323
X22.12087Y-56.48841G85X22.12087Y-57.18844
X11.95787Y-56.36842G85X11.95787Y-57.06844
X22.12087Y-28.56622G85X22.12087Y-29.26624
X11.95787Y-28.44622G85X11.95787Y-29.14625
X-2.51613Y-73.36418G85X-2.51613Y-74.06421
X-12.67913Y-73.24419G85X-12.67913Y-73.94421
T10
X17.038Y-73.93838
X-33.102Y-73.938
X-33.032Y-19.09
X17.108Y-19.08956
T11
X-33.032Y-154.496
X16.968Y-154.49602
M30