G04 Layer: BottomPasteMaskLayer*
G04 EasyEDA Pro v3.2.148, 2026-08-12 23:51:54*
G04 Gerber Generator version 0.3*
G04 Scale: 100 percent, Rotated: No, Reflected: No*
G04 Dimensions in millimeters*
G04 Leading zeros omitted, absolute positions, 4 integers and 5 decimals*
G04 Generated by one-click*
G04 Object Configs: Pad,Via,Track,Text,Image,Dimension,BoardOutline,BoardCutout,CopperFilled,SolidRegion,FPCStiffener,Line,PlaneZone,ComponentProperty,ComponentSilkscreen,TearDrop*
G04 Layer Configs: 1,2,3,4,5,6,7,8,9,10,11,13,14,56*
G04 Copper Areas: 0*
%FSLAX45Y45*%
%MOMM*%
%ADD10R,3.19999X1.6*%
%ADD11C,0.3904*%
G75*


G04 Pad Start*
G54D10*
G01X213636Y255700D03*
G01X-1803836Y255700D03*
G01X213636Y1700D03*
G01X-1803836Y1700D03*
G01X213636Y-252300D03*
G01X-1803836Y-252300D03*
G01X213636Y-506300D03*
G01X-1803836Y-506300D03*
G01X213636Y-760300D03*
G01X-1803836Y-760300D03*
G01X213636Y-1014300D03*
G01X-1803836Y-1014300D03*
G01X213636Y-1268300D03*
G01X-1803836Y-1268300D03*
G01X213636Y-1522300D03*
G01X-1803836Y-1522300D03*
G01X213636Y-1776300D03*
G01X-1803836Y-1776300D03*
G01X213636Y-2030300D03*
G01X-1803836Y-2030300D03*
G01X213636Y-2284300D03*
G01X-1803836Y-2284300D03*
G01X213636Y-2538300D03*
G01X-1803836Y-2538300D03*
G01X213636Y-2792300D03*
G01X-1803836Y-2792300D03*
G01X213636Y-3046300D03*
G01X-1803836Y-3046300D03*
G01X213636Y-3300300D03*
G01X-1803836Y-3300300D03*
G01X213636Y-3554300D03*
G01X-1803836Y-3554300D03*
G01X213636Y-3808300D03*
G01X-1803836Y-3808300D03*
G01X213636Y-4062300D03*
G01X-1803836Y-4062300D03*
G01X213636Y-4316300D03*
G01X-1803836Y-4316300D03*
G01X213636Y-4570300D03*
G01X-1803836Y-4570300D03*
G04 Pad End*

M02*

