G04 Layer: BottomSolderMaskLayer*
G04 EasyEDA Pro v3.2.148, 2026-08-12 23:51:54*
G04 Gerber Generator version 0.3*
G04 Scale: 100 percent, Rotated: No, Reflected: No*
G04 Dimensions in millimeters*
G04 Leading zeros omitted, absolute positions, 4 integers and 5 decimals*
G04 Generated by one-click*
G04 Object Configs: Pad,Via,Track,Text,Image,Dimension,BoardOutline,BoardCutout,CopperFilled,SolidRegion,FPCStiffener,Line,PlaneZone,ComponentProperty,ComponentSilkscreen,TearDrop*
G04 Layer Configs: 1,2,3,4,5,6,7,8,9,10,11,13,14,56*
G04 Copper Areas: 0*
%FSLAX45Y45*%
%MOMM*%
%AMRoundRect*1,1,$1,$2,$3*1,1,$1,$4,$5*1,1,$1,0-$2,0-$3*1,1,$1,0-$4,0-$5*20,1,$1,$2,$3,$4,$5,0*20,1,$1,$4,$5,0-$2,0-$3,0*20,1,$1,0-$2,0-$3,0-$4,0-$5,0*20,1,$1,0-$4,0-$5,$2,$3,0*4,1,4,$2,$3,$4,$5,0-$2,0-$3,0-$4,0-$5,$2,$3,0*%
%ADD10C,4.1016*%
%ADD11C,1.6256*%
%ADD12O,2.90002X3.60002*%
%ADD13C,1.90002*%
%ADD14C,1.9016*%
%ADD15O,2.4016X4.10159*%
%ADD16C,2.1016*%
%ADD17C,1.6016*%
%ADD18RoundRect,0.1016X-1.6X-0.8X-1.6X0.8*%
%ADD19C,2.3916*%
%ADD20C,2.3876*%
G75*


G04 Pad Start*
G54D10*
G01X1703800Y-7393838D03*
G01X-3310200Y-7393800D03*
G01X-3303200Y-1909000D03*
G01X1710800Y-1908956D03*
G01X-3303200Y-15449600D03*
G01X1696800Y-15449602D03*
G54D11*
G01X-1948200Y-16488300D03*
G54D12*
G01X-2787900Y-2891625D03*
G01X-3804200Y-2879626D03*
G54D13*
G01X-3046213Y-3579625D03*
G01X-3296200Y-3579625D03*
G01X-3546212Y-3579625D03*
G54D12*
G01X-2787900Y-5678709D03*
G01X-3804200Y-5666710D03*
G54D13*
G01X-3046213Y-6366708D03*
G01X-3296200Y-6366708D03*
G01X-3546212Y-6366708D03*
G54D12*
G01X-2787900Y-8474803D03*
G01X-3804200Y-8462803D03*
G54D13*
G01X-3046213Y-9162802D03*
G01X-3296200Y-9162802D03*
G01X-3546212Y-9162802D03*
G54D12*
G01X-2787900Y-11265069D03*
G01X-3804200Y-11253070D03*
G54D13*
G01X-3046213Y-11953069D03*
G01X-3296200Y-11953069D03*
G01X-3546212Y-11953069D03*
G54D14*
G01X-3550213Y-14799605D03*
G01X-3296213Y-14799605D03*
G01X-3042213Y-14799605D03*
G01X-3550213Y-13349595D03*
G01X-3042213Y-13349595D03*
G54D15*
G01X-2746201Y-14049594D03*
G01X-3846199Y-14049594D03*
G54D16*
G01X-1900893Y-11175007D03*
G01X-1250907Y-11175007D03*
G01X-1250907Y-11624993D03*
G01X-1900893Y-11624993D03*
G01X-233193Y-11175007D03*
G01X416793Y-11175007D03*
G01X416793Y-11624993D03*
G01X-233193Y-11624993D03*
G54D17*
G01X1794200Y-12444000D03*
G01X1286200Y-12444000D03*
G54D12*
G01X2212100Y-11265069D03*
G01X1195800Y-11253070D03*
G54D13*
G01X1953787Y-11953069D03*
G01X1703800Y-11953069D03*
G01X1453788Y-11953069D03*
G54D17*
G01X1814600Y-9766500D03*
G01X1306600Y-9766500D03*
G01X1030200Y-7093100D03*
G01X1030200Y-6585100D03*
G01X1753400Y-4161600D03*
G01X1245400Y-4161600D03*
G54D12*
G01X2212100Y-8473324D03*
G01X1195800Y-8461324D03*
G54D13*
G01X1953787Y-9161323D03*
G01X1703800Y-9161323D03*
G01X1453788Y-9161323D03*
G54D17*
G01X-3173200Y-12581700D03*
G01X-3681200Y-12581700D03*
G01X-3173200Y-9832800D03*
G01X-3681200Y-9832800D03*
G01X-2498000Y-7043100D03*
G01X-1990000Y-7043100D03*
G01X-3198700Y-4253400D03*
G01X-3706700Y-4253400D03*
G01X-2285800Y-15447900D03*
G01X-2793800Y-15447900D03*
G01X1207700Y-15483600D03*
G01X699700Y-15483600D03*
G01X-317200Y-6405600D03*
G01X-825200Y-6405600D03*
G54D12*
G01X2212100Y-5683845D03*
G01X1195800Y-5671846D03*
G54D13*
G01X1953787Y-6371844D03*
G01X1703800Y-6371844D03*
G01X1453788Y-6371844D03*
G54D12*
G01X2212100Y-2891625D03*
G01X1195800Y-2879626D03*
G54D13*
G01X1953787Y-3579625D03*
G01X1703800Y-3579625D03*
G01X1453788Y-3579625D03*
G54D14*
G01X1449787Y-14799608D03*
G01X1703787Y-14799608D03*
G01X1957787Y-14799608D03*
G01X1449787Y-13349598D03*
G01X1957787Y-13349598D03*
G54D15*
G01X2253799Y-14049597D03*
G01X1153801Y-14049597D03*
G54D16*
G01X-3271593Y-1194993D03*
G01X-3271593Y-545007D03*
G01X-2821607Y-545007D03*
G01X-2821607Y-1194993D03*
G01X1680993Y-545007D03*
G01X1680993Y-1194993D03*
G01X1231007Y-1194993D03*
G01X1231007Y-545007D03*
G54D18*
G01X213636Y255700D03*
G01X-1803836Y255700D03*
G01X213636Y1700D03*
G01X-1803836Y1700D03*
G01X213636Y-252300D03*
G01X-1803836Y-252300D03*
G01X213636Y-506300D03*
G01X-1803836Y-506300D03*
G01X213636Y-760300D03*
G01X-1803836Y-760300D03*
G01X213636Y-1014300D03*
G01X-1803836Y-1014300D03*
G01X213636Y-1268300D03*
G01X-1803836Y-1268300D03*
G01X213636Y-1522300D03*
G01X-1803836Y-1522300D03*
G01X213636Y-1776300D03*
G01X-1803836Y-1776300D03*
G01X213636Y-2030300D03*
G01X-1803836Y-2030300D03*
G01X213636Y-2284300D03*
G01X-1803836Y-2284300D03*
G01X213636Y-2538300D03*
G01X-1803836Y-2538300D03*
G01X213636Y-2792300D03*
G01X-1803836Y-2792300D03*
G01X213636Y-3046300D03*
G01X-1803836Y-3046300D03*
G01X213636Y-3300300D03*
G01X-1803836Y-3300300D03*
G01X213636Y-3554300D03*
G01X-1803836Y-3554300D03*
G01X213636Y-3808300D03*
G01X-1803836Y-3808300D03*
G01X213636Y-4062300D03*
G01X-1803836Y-4062300D03*
G01X213636Y-4316300D03*
G01X-1803836Y-4316300D03*
G01X213636Y-4570300D03*
G01X-1803836Y-4570300D03*
G54D16*
G01X-1350907Y-20425007D03*
G01X-1350907Y-21074993D03*
G01X-1800893Y-21074993D03*
G01X-1800893Y-20425007D03*
G01X316793Y-20425007D03*
G01X316793Y-21074993D03*
G01X-133193Y-21074993D03*
G01X-133193Y-20425007D03*
G54D12*
G01X-251600Y-7371422D03*
G01X-1267900Y-7359423D03*
G54D13*
G01X-509913Y-8059421D03*
G01X-759900Y-8059421D03*
G01X-1009912Y-8059421D03*
G54D11*
G01X-3657200Y-16056500D03*
G01X-3403200Y-16056500D03*
G01X-3149200Y-16056500D03*
G01X-2895305Y-16056500D03*
G01X-3657200Y-21644500D03*
G01X-3149200Y-21644500D03*
G54D20*
G01X-3276200Y-17072500D03*
G01X-3276200Y-20374500D03*
G54D11*
G01X1342790Y-16056500D03*
G01X1596790Y-16056500D03*
G01X1850790Y-16056500D03*
G01X2104685Y-16056500D03*
G01X1342790Y-21644500D03*
G01X1850790Y-21644500D03*
G54D20*
G01X1723790Y-17072500D03*
G01X1723790Y-20374500D03*
G54D16*
G01X-1350907Y-15975007D03*
G01X-1350907Y-16624993D03*
G01X-1800893Y-16624993D03*
G01X-1800893Y-15975007D03*
G01X316793Y-15975007D03*
G01X316793Y-16624993D03*
G01X-133193Y-16624993D03*
G01X-133193Y-15975007D03*
G04 Pad End*

M02*

