G04 Layer: TopSilkscreenLayer*
G04 EasyEDA Pro v3.2.148, 2026-08-12 23:51:54*
G04 Gerber Generator version 0.3*
G04 Scale: 100 percent, Rotated: No, Reflected: No*
G04 Dimensions in millimeters*
G04 Leading zeros omitted, absolute positions, 4 integers and 5 decimals*
G04 Generated by one-click*
G04 Object Configs: Pad,Via,Track,Text,Image,Dimension,BoardOutline,BoardCutout,CopperFilled,SolidRegion,FPCStiffener,Line,PlaneZone,ComponentProperty,ComponentSilkscreen,TearDrop*
G04 Layer Configs: 1,2,3,4,5,6,7,8,9,10,11,13,14,56*
G04 Copper Areas: 0*
%FSLAX45Y45*%
%MOMM*%
%ADD10C,0.1524*%
%ADD11C,0.254*%
%ADD12C,0.3*%
%ADD13C,0.05*%
%ADD14C,0.3592*%
G75*


G04 Text Start*
G54D10*
G01X-3936580Y-2245591D02*
G01X-3936580Y-2310615D01*
G01X-3936580Y-2245591D02*
G01X-3914990Y-2245591D01*
G01X-3905592Y-2248639D01*
G01X-3899496Y-2254735D01*
G01X-3896448Y-2261085D01*
G01X-3893146Y-2270229D01*
G01X-3893146Y-2285723D01*
G01X-3896448Y-2295121D01*
G01X-3899496Y-2301217D01*
G01X-3905592Y-2307567D01*
G01X-3914990Y-2310615D01*
G01X-3936580Y-2310615D01*
G01X-3862920Y-2258037D02*
G01X-3856824Y-2254735D01*
G01X-3847680Y-2245591D01*
G01X-3847680Y-2310615D01*
G01X-3817454Y-2332205D02*
G01X-3761828Y-2332205D01*
G01X-3731602Y-2245591D02*
G01X-3731602Y-2310615D01*
G01X-3688422Y-2245591D02*
G01X-3688422Y-2310615D01*
G01X-3731602Y-2276579D02*
G01X-3688422Y-2276579D01*
G01X-3658196Y-2245591D02*
G01X-3658196Y-2310615D01*
G01X-3581742Y-2261085D02*
G01X-3584790Y-2254735D01*
G01X-3590886Y-2248639D01*
G01X-3597236Y-2245591D01*
G01X-3609428Y-2245591D01*
G01X-3615778Y-2248639D01*
G01X-3621874Y-2254735D01*
G01X-3624922Y-2261085D01*
G01X-3627970Y-2270229D01*
G01X-3627970Y-2285723D01*
G01X-3624922Y-2295121D01*
G01X-3621874Y-2301217D01*
G01X-3615778Y-2307567D01*
G01X-3609428Y-2310615D01*
G01X-3597236Y-2310615D01*
G01X-3590886Y-2307567D01*
G01X-3584790Y-2301217D01*
G01X-3581742Y-2295121D01*
G01X-3581742Y-2285723D01*
G01X-3597236Y-2285723D02*
G01X-3581742Y-2285723D01*
G01X-3551516Y-2245591D02*
G01X-3551516Y-2310615D01*
G01X-3508336Y-2245591D02*
G01X-3508336Y-2310615D01*
G01X-3551516Y-2276579D02*
G01X-3508336Y-2276579D01*
G01X-3936580Y-5032675D02*
G01X-3936580Y-5097699D01*
G01X-3936580Y-5032675D02*
G01X-3914990Y-5032675D01*
G01X-3905592Y-5035723D01*
G01X-3899496Y-5041819D01*
G01X-3896448Y-5048169D01*
G01X-3893146Y-5057313D01*
G01X-3893146Y-5072807D01*
G01X-3896448Y-5082205D01*
G01X-3899496Y-5088301D01*
G01X-3905592Y-5094651D01*
G01X-3914990Y-5097699D01*
G01X-3936580Y-5097699D01*
G01X-3862920Y-5045121D02*
G01X-3856824Y-5041819D01*
G01X-3847680Y-5032675D01*
G01X-3847680Y-5097699D01*
G01X-3817454Y-5119289D02*
G01X-3761828Y-5119289D01*
G01X-3731602Y-5032675D02*
G01X-3731602Y-5097699D01*
G01X-3731602Y-5032675D02*
G01X-3706964Y-5097699D01*
G01X-3682072Y-5032675D02*
G01X-3706964Y-5097699D01*
G01X-3682072Y-5032675D02*
G01X-3682072Y-5097699D01*
G01X-3651846Y-5032675D02*
G01X-3651846Y-5097699D01*
G01X-3621620Y-5032675D02*
G01X-3621620Y-5097699D01*
G01X-3621620Y-5032675D02*
G01X-3600030Y-5032675D01*
G01X-3590886Y-5035723D01*
G01X-3584536Y-5041819D01*
G01X-3581488Y-5048169D01*
G01X-3578440Y-5057313D01*
G01X-3578440Y-5072807D01*
G01X-3581488Y-5082205D01*
G01X-3584536Y-5088301D01*
G01X-3590886Y-5094651D01*
G01X-3600030Y-5097699D01*
G01X-3621620Y-5097699D01*
G01X-3936580Y-7828769D02*
G01X-3936580Y-7893793D01*
G01X-3936580Y-7828769D02*
G01X-3914990Y-7828769D01*
G01X-3905592Y-7831817D01*
G01X-3899496Y-7837913D01*
G01X-3896448Y-7844263D01*
G01X-3893146Y-7853407D01*
G01X-3893146Y-7868901D01*
G01X-3896448Y-7878299D01*
G01X-3899496Y-7884395D01*
G01X-3905592Y-7890745D01*
G01X-3914990Y-7893793D01*
G01X-3936580Y-7893793D01*
G01X-3862920Y-7841215D02*
G01X-3856824Y-7837913D01*
G01X-3847680Y-7828769D01*
G01X-3847680Y-7893793D01*
G01X-3817454Y-7915383D02*
G01X-3761828Y-7915383D01*
G01X-3731602Y-7828769D02*
G01X-3731602Y-7893793D01*
G01X-3731602Y-7893793D02*
G01X-3694518Y-7893793D01*
G01X-3645750Y-7828769D02*
G01X-3652100Y-7831817D01*
G01X-3658196Y-7837913D01*
G01X-3661244Y-7844263D01*
G01X-3664292Y-7853407D01*
G01X-3664292Y-7868901D01*
G01X-3661244Y-7878299D01*
G01X-3658196Y-7884395D01*
G01X-3652100Y-7890745D01*
G01X-3645750Y-7893793D01*
G01X-3633558Y-7893793D01*
G01X-3627208Y-7890745D01*
G01X-3621112Y-7884395D01*
G01X-3618064Y-7878299D01*
G01X-3614762Y-7868901D01*
G01X-3614762Y-7853407D01*
G01X-3618064Y-7844263D01*
G01X-3621112Y-7837913D01*
G01X-3627208Y-7831817D01*
G01X-3633558Y-7828769D01*
G01X-3645750Y-7828769D01*
G01X-3584536Y-7828769D02*
G01X-3569296Y-7893793D01*
G01X-3553802Y-7828769D02*
G01X-3569296Y-7893793D01*
G01X-3553802Y-7828769D02*
G01X-3538308Y-7893793D01*
G01X-3522814Y-7828769D02*
G01X-3538308Y-7893793D01*
G01X-3936580Y-10619035D02*
G01X-3936580Y-10684059D01*
G01X-3936580Y-10619035D02*
G01X-3914990Y-10619035D01*
G01X-3905592Y-10622083D01*
G01X-3899496Y-10628179D01*
G01X-3896448Y-10634529D01*
G01X-3893146Y-10643673D01*
G01X-3893146Y-10659167D01*
G01X-3896448Y-10668565D01*
G01X-3899496Y-10674661D01*
G01X-3905592Y-10681011D01*
G01X-3914990Y-10684059D01*
G01X-3936580Y-10684059D01*
G01X-3862920Y-10631481D02*
G01X-3856824Y-10628179D01*
G01X-3847680Y-10619035D01*
G01X-3847680Y-10684059D01*
G01X-3817454Y-10705649D02*
G01X-3761828Y-10705649D01*
G01X-3731602Y-10619035D02*
G01X-3731602Y-10684059D01*
G01X-3731602Y-10619035D02*
G01X-3691470Y-10619035D01*
G01X-3731602Y-10650023D02*
G01X-3706964Y-10650023D01*
G01X-3661244Y-10619035D02*
G01X-3661244Y-10684059D01*
G01X-3631018Y-10619035D02*
G01X-3631018Y-10684059D01*
G01X-3631018Y-10684059D02*
G01X-3593934Y-10684059D01*
G01X-3542118Y-10619035D02*
G01X-3542118Y-10684059D01*
G01X-3563708Y-10619035D02*
G01X-3520528Y-10619035D01*
G01X-3490302Y-10619035D02*
G01X-3490302Y-10684059D01*
G01X-3490302Y-10619035D02*
G01X-3450170Y-10619035D01*
G01X-3490302Y-10650023D02*
G01X-3465664Y-10650023D01*
G01X-3490302Y-10684059D02*
G01X-3450170Y-10684059D01*
G01X-3419944Y-10619035D02*
G01X-3419944Y-10684059D01*
G01X-3419944Y-10619035D02*
G01X-3392258Y-10619035D01*
G01X-3382860Y-10622083D01*
G01X-3379812Y-10625131D01*
G01X-3376764Y-10631481D01*
G01X-3376764Y-10637577D01*
G01X-3379812Y-10643673D01*
G01X-3382860Y-10646721D01*
G01X-3392258Y-10650023D01*
G01X-3419944Y-10650023D01*
G01X-3398354Y-10650023D02*
G01X-3376764Y-10684059D01*
G01X-3912683Y-13155552D02*
G01X-3919033Y-13149456D01*
G01X-3928177Y-13146408D01*
G01X-3940623Y-13146408D01*
G01X-3950021Y-13149456D01*
G01X-3956117Y-13155552D01*
G01X-3956117Y-13161902D01*
G01X-3953069Y-13167998D01*
G01X-3950021Y-13171046D01*
G01X-3943671Y-13174094D01*
G01X-3925129Y-13180444D01*
G01X-3919033Y-13183492D01*
G01X-3915985Y-13186540D01*
G01X-3912683Y-13192890D01*
G01X-3912683Y-13202034D01*
G01X-3919033Y-13208384D01*
G01X-3928177Y-13211432D01*
G01X-3940623Y-13211432D01*
G01X-3950021Y-13208384D01*
G01X-3956117Y-13202034D01*
G01X-3882457Y-13146408D02*
G01X-3867217Y-13211432D01*
G01X-3851723Y-13146408D02*
G01X-3867217Y-13211432D01*
G01X-3851723Y-13146408D02*
G01X-3836229Y-13211432D01*
G01X-3820735Y-13146408D02*
G01X-3836229Y-13211432D01*
G01X-3790509Y-13158854D02*
G01X-3784413Y-13155552D01*
G01X-3775269Y-13146408D01*
G01X-3775269Y-13211432D01*
G01X-1993273Y-10968073D02*
G01X-1993273Y-11033097D01*
G01X-1993273Y-10968073D02*
G01X-1953141Y-10968073D01*
G01X-1993273Y-10999061D02*
G01X-1968381Y-10999061D01*
G01X-1922915Y-10968073D02*
G01X-1922915Y-11033097D01*
G01X-1892689Y-10968073D02*
G01X-1892689Y-11033097D01*
G01X-1892689Y-11033097D02*
G01X-1855605Y-11033097D01*
G01X-1803789Y-10968073D02*
G01X-1803789Y-11033097D01*
G01X-1825379Y-10968073D02*
G01X-1782199Y-10968073D01*
G01X-1751973Y-10968073D02*
G01X-1751973Y-11033097D01*
G01X-1751973Y-10968073D02*
G01X-1711841Y-10968073D01*
G01X-1751973Y-10999061D02*
G01X-1727335Y-10999061D01*
G01X-1751973Y-11033097D02*
G01X-1711841Y-11033097D01*
G01X-1681615Y-10968073D02*
G01X-1681615Y-11033097D01*
G01X-1681615Y-10968073D02*
G01X-1653929Y-10968073D01*
G01X-1644531Y-10971121D01*
G01X-1641483Y-10974169D01*
G01X-1638435Y-10980519D01*
G01X-1638435Y-10986615D01*
G01X-1641483Y-10992711D01*
G01X-1644531Y-10995759D01*
G01X-1653929Y-10999061D01*
G01X-1681615Y-10999061D01*
G01X-1660025Y-10999061D02*
G01X-1638435Y-11033097D01*
G01X-1608209Y-11054687D02*
G01X-1552583Y-11054687D01*
G01X-1479177Y-10977217D02*
G01X-1485273Y-10971121D01*
G01X-1494671Y-10968073D01*
G01X-1507117Y-10968073D01*
G01X-1516261Y-10971121D01*
G01X-1522357Y-10977217D01*
G01X-1522357Y-10983567D01*
G01X-1519309Y-10989663D01*
G01X-1516261Y-10992711D01*
G01X-1510165Y-10995759D01*
G01X-1491623Y-11002109D01*
G01X-1485273Y-11005157D01*
G01X-1482225Y-11008205D01*
G01X-1479177Y-11014555D01*
G01X-1479177Y-11023699D01*
G01X-1485273Y-11030049D01*
G01X-1494671Y-11033097D01*
G01X-1507117Y-11033097D01*
G01X-1516261Y-11030049D01*
G01X-1522357Y-11023699D01*
G01X-1448951Y-10968073D02*
G01X-1448951Y-11033097D01*
G01X-1448951Y-10968073D02*
G01X-1408819Y-10968073D01*
G01X-1448951Y-10999061D02*
G01X-1424313Y-10999061D01*
G01X-1448951Y-11033097D02*
G01X-1408819Y-11033097D01*
G01X-1378593Y-10968073D02*
G01X-1378593Y-11033097D01*
G01X-1378593Y-11033097D02*
G01X-1341509Y-11033097D01*
G01X-1311283Y-11054687D02*
G01X-1255657Y-11054687D01*
G01X-1225431Y-10980519D02*
G01X-1219335Y-10977217D01*
G01X-1210191Y-10968073D01*
G01X-1210191Y-11033097D01*
G01X-325573Y-10968073D02*
G01X-325573Y-11033097D01*
G01X-325573Y-10968073D02*
G01X-285441Y-10968073D01*
G01X-325573Y-10999061D02*
G01X-300681Y-10999061D01*
G01X-255215Y-10968073D02*
G01X-255215Y-11033097D01*
G01X-224989Y-10968073D02*
G01X-224989Y-11033097D01*
G01X-224989Y-11033097D02*
G01X-187905Y-11033097D01*
G01X-136089Y-10968073D02*
G01X-136089Y-11033097D01*
G01X-157679Y-10968073D02*
G01X-114499Y-10968073D01*
G01X-84273Y-10968073D02*
G01X-84273Y-11033097D01*
G01X-84273Y-10968073D02*
G01X-44141Y-10968073D01*
G01X-84273Y-10999061D02*
G01X-59635Y-10999061D01*
G01X-84273Y-11033097D02*
G01X-44141Y-11033097D01*
G01X-13915Y-10968073D02*
G01X-13915Y-11033097D01*
G01X-13915Y-10968073D02*
G01X13771Y-10968073D01*
G01X23169Y-10971121D01*
G01X26217Y-10974169D01*
G01X29265Y-10980519D01*
G01X29265Y-10986615D01*
G01X26217Y-10992711D01*
G01X23169Y-10995759D01*
G01X13771Y-10999061D01*
G01X-13915Y-10999061D01*
G01X7675Y-10999061D02*
G01X29265Y-11033097D01*
G01X59491Y-11054687D02*
G01X115117Y-11054687D01*
G01X188523Y-10977217D02*
G01X182427Y-10971121D01*
G01X173029Y-10968073D01*
G01X160583Y-10968073D01*
G01X151439Y-10971121D01*
G01X145343Y-10977217D01*
G01X145343Y-10983567D01*
G01X148391Y-10989663D01*
G01X151439Y-10992711D01*
G01X157535Y-10995759D01*
G01X176077Y-11002109D01*
G01X182427Y-11005157D01*
G01X185475Y-11008205D01*
G01X188523Y-11014555D01*
G01X188523Y-11023699D01*
G01X182427Y-11030049D01*
G01X173029Y-11033097D01*
G01X160583Y-11033097D01*
G01X151439Y-11030049D01*
G01X145343Y-11023699D01*
G01X218749Y-10968073D02*
G01X218749Y-11033097D01*
G01X218749Y-10968073D02*
G01X258881Y-10968073D01*
G01X218749Y-10999061D02*
G01X243387Y-10999061D01*
G01X218749Y-11033097D02*
G01X258881Y-11033097D01*
G01X289107Y-10968073D02*
G01X289107Y-11033097D01*
G01X289107Y-11033097D02*
G01X326191Y-11033097D01*
G01X356417Y-11054687D02*
G01X412043Y-11054687D01*
G01X445317Y-10983567D02*
G01X445317Y-10980519D01*
G01X448365Y-10974169D01*
G01X451413Y-10971121D01*
G01X457509Y-10968073D01*
G01X469955Y-10968073D01*
G01X476305Y-10971121D01*
G01X479353Y-10974169D01*
G01X482401Y-10980519D01*
G01X482401Y-10986615D01*
G01X479353Y-10992711D01*
G01X473003Y-11002109D01*
G01X442269Y-11033097D01*
G01X485449Y-11033097D01*
G01X1815098Y-12675140D02*
G01X1818146Y-12681490D01*
G01X1824496Y-12687586D01*
G01X1830592Y-12690634D01*
G01X1843038Y-12690634D01*
G01X1849134Y-12687586D01*
G01X1855484Y-12681490D01*
G01X1858532Y-12675140D01*
G01X1861580Y-12665996D01*
G01X1861580Y-12650502D01*
G01X1858532Y-12641104D01*
G01X1855484Y-12635008D01*
G01X1849134Y-12628658D01*
G01X1843038Y-12625610D01*
G01X1830592Y-12625610D01*
G01X1824496Y-12628658D01*
G01X1818146Y-12635008D01*
G01X1815098Y-12641104D01*
G01X1781824Y-12675140D02*
G01X1781824Y-12678188D01*
G01X1778776Y-12684538D01*
G01X1775728Y-12687586D01*
G01X1769632Y-12690634D01*
G01X1757186Y-12690634D01*
G01X1750836Y-12687586D01*
G01X1747788Y-12684538D01*
G01X1744740Y-12678188D01*
G01X1744740Y-12672092D01*
G01X1747788Y-12665996D01*
G01X1754138Y-12656598D01*
G01X1784872Y-12625610D01*
G01X1741692Y-12625610D01*
G01X1063420Y-10619035D02*
G01X1063420Y-10684059D01*
G01X1063420Y-10619035D02*
G01X1085010Y-10619035D01*
G01X1094408Y-10622083D01*
G01X1100504Y-10628179D01*
G01X1103552Y-10634529D01*
G01X1106854Y-10643673D01*
G01X1106854Y-10659167D01*
G01X1103552Y-10668565D01*
G01X1100504Y-10674661D01*
G01X1094408Y-10681011D01*
G01X1085010Y-10684059D01*
G01X1063420Y-10684059D01*
G01X1140128Y-10634529D02*
G01X1140128Y-10631481D01*
G01X1143176Y-10625131D01*
G01X1146224Y-10622083D01*
G01X1152320Y-10619035D01*
G01X1164766Y-10619035D01*
G01X1171116Y-10622083D01*
G01X1174164Y-10625131D01*
G01X1177212Y-10631481D01*
G01X1177212Y-10637577D01*
G01X1174164Y-10643673D01*
G01X1167814Y-10653071D01*
G01X1137080Y-10684059D01*
G01X1180260Y-10684059D01*
G01X1210486Y-10705649D02*
G01X1266112Y-10705649D01*
G01X1296338Y-10619035D02*
G01X1296338Y-10684059D01*
G01X1296338Y-10619035D02*
G01X1336470Y-10619035D01*
G01X1296338Y-10650023D02*
G01X1320976Y-10650023D01*
G01X1366696Y-10619035D02*
G01X1366696Y-10684059D01*
G01X1396922Y-10619035D02*
G01X1396922Y-10684059D01*
G01X1396922Y-10684059D02*
G01X1434006Y-10684059D01*
G01X1485822Y-10619035D02*
G01X1485822Y-10684059D01*
G01X1464232Y-10619035D02*
G01X1507412Y-10619035D01*
G01X1537638Y-10619035D02*
G01X1537638Y-10684059D01*
G01X1537638Y-10619035D02*
G01X1577770Y-10619035D01*
G01X1537638Y-10650023D02*
G01X1562276Y-10650023D01*
G01X1537638Y-10684059D02*
G01X1577770Y-10684059D01*
G01X1607996Y-10619035D02*
G01X1607996Y-10684059D01*
G01X1607996Y-10619035D02*
G01X1635682Y-10619035D01*
G01X1645080Y-10622083D01*
G01X1648128Y-10625131D01*
G01X1651176Y-10631481D01*
G01X1651176Y-10637577D01*
G01X1648128Y-10643673D01*
G01X1645080Y-10646721D01*
G01X1635682Y-10650023D01*
G01X1607996Y-10650023D01*
G01X1629586Y-10650023D02*
G01X1651176Y-10684059D01*
G01X1835498Y-9997640D02*
G01X1838546Y-10003990D01*
G01X1844896Y-10010086D01*
G01X1850992Y-10013134D01*
G01X1863438Y-10013134D01*
G01X1869534Y-10010086D01*
G01X1875884Y-10003990D01*
G01X1878932Y-9997640D01*
G01X1881980Y-9988496D01*
G01X1881980Y-9973002D01*
G01X1878932Y-9963604D01*
G01X1875884Y-9957508D01*
G01X1869534Y-9951158D01*
G01X1863438Y-9948110D01*
G01X1850992Y-9948110D01*
G01X1844896Y-9951158D01*
G01X1838546Y-9957508D01*
G01X1835498Y-9963604D01*
G01X1799176Y-10013134D02*
G01X1765140Y-10013134D01*
G01X1783682Y-9988496D01*
G01X1774538Y-9988496D01*
G01X1768188Y-9985448D01*
G01X1765140Y-9982146D01*
G01X1762092Y-9973002D01*
G01X1762092Y-9966652D01*
G01X1765140Y-9957508D01*
G01X1771236Y-9951158D01*
G01X1780634Y-9948110D01*
G01X1790032Y-9948110D01*
G01X1799176Y-9951158D01*
G01X1802224Y-9954460D01*
G01X1805272Y-9960556D01*
G01X1048360Y-6871698D02*
G01X1042010Y-6874746D01*
G01X1035914Y-6881096D01*
G01X1032866Y-6887192D01*
G01X1032866Y-6899638D01*
G01X1035914Y-6905734D01*
G01X1042010Y-6912084D01*
G01X1048360Y-6915132D01*
G01X1057504Y-6918180D01*
G01X1072998Y-6918180D01*
G01X1082396Y-6915132D01*
G01X1088492Y-6912084D01*
G01X1094842Y-6905734D01*
G01X1097890Y-6899638D01*
G01X1097890Y-6887192D01*
G01X1094842Y-6881096D01*
G01X1088492Y-6874746D01*
G01X1082396Y-6871698D01*
G01X1032866Y-6810738D02*
G01X1076046Y-6841472D01*
G01X1076046Y-6795244D01*
G01X1032866Y-6810738D02*
G01X1097890Y-6810738D01*
G01X1774298Y-4392740D02*
G01X1777346Y-4399090D01*
G01X1783696Y-4405186D01*
G01X1789792Y-4408234D01*
G01X1802238Y-4408234D01*
G01X1808334Y-4405186D01*
G01X1814684Y-4399090D01*
G01X1817732Y-4392740D01*
G01X1820780Y-4383596D01*
G01X1820780Y-4368102D01*
G01X1817732Y-4358704D01*
G01X1814684Y-4352608D01*
G01X1808334Y-4346258D01*
G01X1802238Y-4343210D01*
G01X1789792Y-4343210D01*
G01X1783696Y-4346258D01*
G01X1777346Y-4352608D01*
G01X1774298Y-4358704D01*
G01X1706988Y-4408234D02*
G01X1737976Y-4408234D01*
G01X1741024Y-4380548D01*
G01X1737976Y-4383596D01*
G01X1728832Y-4386644D01*
G01X1719434Y-4386644D01*
G01X1710036Y-4383596D01*
G01X1703940Y-4377246D01*
G01X1700892Y-4368102D01*
G01X1700892Y-4361752D01*
G01X1703940Y-4352608D01*
G01X1710036Y-4346258D01*
G01X1719434Y-4343210D01*
G01X1728832Y-4343210D01*
G01X1737976Y-4346258D01*
G01X1741024Y-4349560D01*
G01X1744072Y-4355656D01*
G01X1063420Y-7827290D02*
G01X1063420Y-7892314D01*
G01X1063420Y-7827290D02*
G01X1085010Y-7827290D01*
G01X1094408Y-7830338D01*
G01X1100504Y-7836434D01*
G01X1103552Y-7842784D01*
G01X1106854Y-7851928D01*
G01X1106854Y-7867422D01*
G01X1103552Y-7876820D01*
G01X1100504Y-7882916D01*
G01X1094408Y-7889266D01*
G01X1085010Y-7892314D01*
G01X1063420Y-7892314D01*
G01X1140128Y-7842784D02*
G01X1140128Y-7839736D01*
G01X1143176Y-7833386D01*
G01X1146224Y-7830338D01*
G01X1152320Y-7827290D01*
G01X1164766Y-7827290D01*
G01X1171116Y-7830338D01*
G01X1174164Y-7833386D01*
G01X1177212Y-7839736D01*
G01X1177212Y-7845832D01*
G01X1174164Y-7851928D01*
G01X1167814Y-7861326D01*
G01X1137080Y-7892314D01*
G01X1180260Y-7892314D01*
G01X1210486Y-7913904D02*
G01X1266112Y-7913904D01*
G01X1296338Y-7827290D02*
G01X1296338Y-7892314D01*
G01X1296338Y-7892314D02*
G01X1333422Y-7892314D01*
G01X1382190Y-7827290D02*
G01X1375840Y-7830338D01*
G01X1369744Y-7836434D01*
G01X1366696Y-7842784D01*
G01X1363648Y-7851928D01*
G01X1363648Y-7867422D01*
G01X1366696Y-7876820D01*
G01X1369744Y-7882916D01*
G01X1375840Y-7889266D01*
G01X1382190Y-7892314D01*
G01X1394382Y-7892314D01*
G01X1400732Y-7889266D01*
G01X1406828Y-7882916D01*
G01X1409876Y-7876820D01*
G01X1413178Y-7867422D01*
G01X1413178Y-7851928D01*
G01X1409876Y-7842784D01*
G01X1406828Y-7836434D01*
G01X1400732Y-7830338D01*
G01X1394382Y-7827290D01*
G01X1382190Y-7827290D01*
G01X1443404Y-7827290D02*
G01X1458644Y-7892314D01*
G01X1474138Y-7827290D02*
G01X1458644Y-7892314D01*
G01X1474138Y-7827290D02*
G01X1489632Y-7892314D01*
G01X1505126Y-7827290D02*
G01X1489632Y-7892314D01*
G01X-3152302Y-12812840D02*
G01X-3149254Y-12819190D01*
G01X-3142904Y-12825286D01*
G01X-3136808Y-12828334D01*
G01X-3124362Y-12828334D01*
G01X-3118266Y-12825286D01*
G01X-3111916Y-12819190D01*
G01X-3108868Y-12812840D01*
G01X-3105820Y-12803696D01*
G01X-3105820Y-12788202D01*
G01X-3108868Y-12778804D01*
G01X-3111916Y-12772708D01*
G01X-3118266Y-12766358D01*
G01X-3124362Y-12763310D01*
G01X-3136808Y-12763310D01*
G01X-3142904Y-12766358D01*
G01X-3149254Y-12772708D01*
G01X-3152302Y-12778804D01*
G01X-3219612Y-12819190D02*
G01X-3216564Y-12825286D01*
G01X-3207166Y-12828334D01*
G01X-3201070Y-12828334D01*
G01X-3191672Y-12825286D01*
G01X-3185576Y-12815888D01*
G01X-3182528Y-12800648D01*
G01X-3182528Y-12785154D01*
G01X-3185576Y-12772708D01*
G01X-3191672Y-12766358D01*
G01X-3201070Y-12763310D01*
G01X-3204118Y-12763310D01*
G01X-3213262Y-12766358D01*
G01X-3219612Y-12772708D01*
G01X-3222660Y-12781852D01*
G01X-3222660Y-12785154D01*
G01X-3219612Y-12794298D01*
G01X-3213262Y-12800648D01*
G01X-3204118Y-12803696D01*
G01X-3201070Y-12803696D01*
G01X-3191672Y-12800648D01*
G01X-3185576Y-12794298D01*
G01X-3182528Y-12785154D01*
G01X-3152302Y-10063940D02*
G01X-3149254Y-10070290D01*
G01X-3142904Y-10076386D01*
G01X-3136808Y-10079434D01*
G01X-3124362Y-10079434D01*
G01X-3118266Y-10076386D01*
G01X-3111916Y-10070290D01*
G01X-3108868Y-10063940D01*
G01X-3105820Y-10054796D01*
G01X-3105820Y-10039302D01*
G01X-3108868Y-10029904D01*
G01X-3111916Y-10023808D01*
G01X-3118266Y-10017458D01*
G01X-3124362Y-10014410D01*
G01X-3136808Y-10014410D01*
G01X-3142904Y-10017458D01*
G01X-3149254Y-10023808D01*
G01X-3152302Y-10029904D01*
G01X-3225708Y-10079434D02*
G01X-3194720Y-10014410D01*
G01X-3182528Y-10079434D02*
G01X-3225708Y-10079434D01*
G01X-2518898Y-6811960D02*
G01X-2521946Y-6805610D01*
G01X-2528296Y-6799514D01*
G01X-2534392Y-6796466D01*
G01X-2546838Y-6796466D01*
G01X-2552934Y-6799514D01*
G01X-2559284Y-6805610D01*
G01X-2562332Y-6811960D01*
G01X-2565380Y-6821104D01*
G01X-2565380Y-6836598D01*
G01X-2562332Y-6845996D01*
G01X-2559284Y-6852092D01*
G01X-2552934Y-6858442D01*
G01X-2546838Y-6861490D01*
G01X-2534392Y-6861490D01*
G01X-2528296Y-6858442D01*
G01X-2521946Y-6852092D01*
G01X-2518898Y-6845996D01*
G01X-2473432Y-6796466D02*
G01X-2482576Y-6799514D01*
G01X-2485624Y-6805610D01*
G01X-2485624Y-6811960D01*
G01X-2482576Y-6818056D01*
G01X-2476480Y-6821104D01*
G01X-2464034Y-6824152D01*
G01X-2454636Y-6827454D01*
G01X-2448540Y-6833550D01*
G01X-2445492Y-6839646D01*
G01X-2445492Y-6849044D01*
G01X-2448540Y-6855140D01*
G01X-2451588Y-6858442D01*
G01X-2460986Y-6861490D01*
G01X-2473432Y-6861490D01*
G01X-2482576Y-6858442D01*
G01X-2485624Y-6855140D01*
G01X-2488672Y-6849044D01*
G01X-2488672Y-6839646D01*
G01X-2485624Y-6833550D01*
G01X-2479528Y-6827454D01*
G01X-2470130Y-6824152D01*
G01X-2457938Y-6821104D01*
G01X-2451588Y-6818056D01*
G01X-2448540Y-6811960D01*
G01X-2448540Y-6805610D01*
G01X-2451588Y-6799514D01*
G01X-2460986Y-6796466D01*
G01X-2473432Y-6796466D01*
G01X-3177802Y-4484540D02*
G01X-3174754Y-4490890D01*
G01X-3168404Y-4496986D01*
G01X-3162308Y-4500034D01*
G01X-3149862Y-4500034D01*
G01X-3143766Y-4496986D01*
G01X-3137416Y-4490890D01*
G01X-3134368Y-4484540D01*
G01X-3131320Y-4475396D01*
G01X-3131320Y-4459902D01*
G01X-3134368Y-4450504D01*
G01X-3137416Y-4444408D01*
G01X-3143766Y-4438058D01*
G01X-3149862Y-4435010D01*
G01X-3162308Y-4435010D01*
G01X-3168404Y-4438058D01*
G01X-3174754Y-4444408D01*
G01X-3177802Y-4450504D01*
G01X-3248160Y-4478444D02*
G01X-3245112Y-4469046D01*
G01X-3238762Y-4462950D01*
G01X-3229618Y-4459902D01*
G01X-3226570Y-4459902D01*
G01X-3217172Y-4462950D01*
G01X-3211076Y-4469046D01*
G01X-3208028Y-4478444D01*
G01X-3208028Y-4481492D01*
G01X-3211076Y-4490890D01*
G01X-3217172Y-4496986D01*
G01X-3226570Y-4500034D01*
G01X-3229618Y-4500034D01*
G01X-3238762Y-4496986D01*
G01X-3245112Y-4490890D01*
G01X-3248160Y-4478444D01*
G01X-3248160Y-4462950D01*
G01X-3245112Y-4447456D01*
G01X-3238762Y-4438058D01*
G01X-3229618Y-4435010D01*
G01X-3223268Y-4435010D01*
G01X-3214124Y-4438058D01*
G01X-3211076Y-4444408D01*
G01X-2264902Y-15679040D02*
G01X-2261854Y-15685390D01*
G01X-2255504Y-15691486D01*
G01X-2249408Y-15694534D01*
G01X-2236962Y-15694534D01*
G01X-2230866Y-15691486D01*
G01X-2224516Y-15685390D01*
G01X-2221468Y-15679040D01*
G01X-2218420Y-15669896D01*
G01X-2218420Y-15654402D01*
G01X-2221468Y-15645004D01*
G01X-2224516Y-15638908D01*
G01X-2230866Y-15632558D01*
G01X-2236962Y-15629510D01*
G01X-2249408Y-15629510D01*
G01X-2255504Y-15632558D01*
G01X-2261854Y-15638908D01*
G01X-2264902Y-15645004D01*
G01X-2295128Y-15682088D02*
G01X-2301224Y-15685390D01*
G01X-2310368Y-15694534D01*
G01X-2310368Y-15629510D01*
G01X-2359136Y-15694534D02*
G01X-2349738Y-15691486D01*
G01X-2343642Y-15682088D01*
G01X-2340594Y-15666848D01*
G01X-2340594Y-15657450D01*
G01X-2343642Y-15641956D01*
G01X-2349738Y-15632558D01*
G01X-2359136Y-15629510D01*
G01X-2365232Y-15629510D01*
G01X-2374630Y-15632558D01*
G01X-2380726Y-15641956D01*
G01X-2383774Y-15657450D01*
G01X-2383774Y-15666848D01*
G01X-2380726Y-15682088D01*
G01X-2374630Y-15691486D01*
G01X-2365232Y-15694534D01*
G01X-2359136Y-15694534D01*
G01X1228598Y-15714740D02*
G01X1231646Y-15721090D01*
G01X1237996Y-15727186D01*
G01X1244092Y-15730234D01*
G01X1256538Y-15730234D01*
G01X1262634Y-15727186D01*
G01X1268984Y-15721090D01*
G01X1272032Y-15714740D01*
G01X1275080Y-15705596D01*
G01X1275080Y-15690102D01*
G01X1272032Y-15680704D01*
G01X1268984Y-15674608D01*
G01X1262634Y-15668258D01*
G01X1256538Y-15665210D01*
G01X1244092Y-15665210D01*
G01X1237996Y-15668258D01*
G01X1231646Y-15674608D01*
G01X1228598Y-15680704D01*
G01X1198372Y-15717788D02*
G01X1192276Y-15721090D01*
G01X1183132Y-15730234D01*
G01X1183132Y-15665210D01*
G01X1152906Y-15717788D02*
G01X1146810Y-15721090D01*
G01X1137666Y-15730234D01*
G01X1137666Y-15665210D01*
G01X-296302Y-6636740D02*
G01X-293254Y-6643090D01*
G01X-286904Y-6649186D01*
G01X-280808Y-6652234D01*
G01X-268362Y-6652234D01*
G01X-262266Y-6649186D01*
G01X-255916Y-6643090D01*
G01X-252868Y-6636740D01*
G01X-249820Y-6627596D01*
G01X-249820Y-6612102D01*
G01X-252868Y-6602704D01*
G01X-255916Y-6596608D01*
G01X-262266Y-6590258D01*
G01X-268362Y-6587210D01*
G01X-280808Y-6587210D01*
G01X-286904Y-6590258D01*
G01X-293254Y-6596608D01*
G01X-296302Y-6602704D01*
G01X-326528Y-6639788D02*
G01X-332624Y-6643090D01*
G01X-341768Y-6652234D01*
G01X-341768Y-6587210D01*
G01X-375042Y-6636740D02*
G01X-375042Y-6639788D01*
G01X-378090Y-6646138D01*
G01X-381138Y-6649186D01*
G01X-387234Y-6652234D01*
G01X-399680Y-6652234D01*
G01X-406030Y-6649186D01*
G01X-409078Y-6646138D01*
G01X-412126Y-6639788D01*
G01X-412126Y-6633692D01*
G01X-409078Y-6627596D01*
G01X-402728Y-6618198D01*
G01X-371994Y-6587210D01*
G01X-415174Y-6587210D01*
G01X1063420Y-5037811D02*
G01X1063420Y-5102835D01*
G01X1063420Y-5037811D02*
G01X1085010Y-5037811D01*
G01X1094408Y-5040859D01*
G01X1100504Y-5046955D01*
G01X1103552Y-5053305D01*
G01X1106854Y-5062449D01*
G01X1106854Y-5077943D01*
G01X1103552Y-5087341D01*
G01X1100504Y-5093437D01*
G01X1094408Y-5099787D01*
G01X1085010Y-5102835D01*
G01X1063420Y-5102835D01*
G01X1140128Y-5053305D02*
G01X1140128Y-5050257D01*
G01X1143176Y-5043907D01*
G01X1146224Y-5040859D01*
G01X1152320Y-5037811D01*
G01X1164766Y-5037811D01*
G01X1171116Y-5040859D01*
G01X1174164Y-5043907D01*
G01X1177212Y-5050257D01*
G01X1177212Y-5056353D01*
G01X1174164Y-5062449D01*
G01X1167814Y-5071847D01*
G01X1137080Y-5102835D01*
G01X1180260Y-5102835D01*
G01X1210486Y-5124425D02*
G01X1266112Y-5124425D01*
G01X1296338Y-5037811D02*
G01X1296338Y-5102835D01*
G01X1296338Y-5037811D02*
G01X1320976Y-5102835D01*
G01X1345868Y-5037811D02*
G01X1320976Y-5102835D01*
G01X1345868Y-5037811D02*
G01X1345868Y-5102835D01*
G01X1376094Y-5037811D02*
G01X1376094Y-5102835D01*
G01X1406320Y-5037811D02*
G01X1406320Y-5102835D01*
G01X1406320Y-5037811D02*
G01X1427910Y-5037811D01*
G01X1437054Y-5040859D01*
G01X1443404Y-5046955D01*
G01X1446452Y-5053305D01*
G01X1449500Y-5062449D01*
G01X1449500Y-5077943D01*
G01X1446452Y-5087341D01*
G01X1443404Y-5093437D01*
G01X1437054Y-5099787D01*
G01X1427910Y-5102835D01*
G01X1406320Y-5102835D01*
G01X1063420Y-2245591D02*
G01X1063420Y-2310615D01*
G01X1063420Y-2245591D02*
G01X1085010Y-2245591D01*
G01X1094408Y-2248639D01*
G01X1100504Y-2254735D01*
G01X1103552Y-2261085D01*
G01X1106854Y-2270229D01*
G01X1106854Y-2285723D01*
G01X1103552Y-2295121D01*
G01X1100504Y-2301217D01*
G01X1094408Y-2307567D01*
G01X1085010Y-2310615D01*
G01X1063420Y-2310615D01*
G01X1140128Y-2261085D02*
G01X1140128Y-2258037D01*
G01X1143176Y-2251687D01*
G01X1146224Y-2248639D01*
G01X1152320Y-2245591D01*
G01X1164766Y-2245591D01*
G01X1171116Y-2248639D01*
G01X1174164Y-2251687D01*
G01X1177212Y-2258037D01*
G01X1177212Y-2264133D01*
G01X1174164Y-2270229D01*
G01X1167814Y-2279627D01*
G01X1137080Y-2310615D01*
G01X1180260Y-2310615D01*
G01X1210486Y-2332205D02*
G01X1266112Y-2332205D01*
G01X1296338Y-2245591D02*
G01X1296338Y-2310615D01*
G01X1339518Y-2245591D02*
G01X1339518Y-2310615D01*
G01X1296338Y-2276579D02*
G01X1339518Y-2276579D01*
G01X1369744Y-2245591D02*
G01X1369744Y-2310615D01*
G01X1446198Y-2261085D02*
G01X1443150Y-2254735D01*
G01X1437054Y-2248639D01*
G01X1430704Y-2245591D01*
G01X1418512Y-2245591D01*
G01X1412162Y-2248639D01*
G01X1406066Y-2254735D01*
G01X1403018Y-2261085D01*
G01X1399970Y-2270229D01*
G01X1399970Y-2285723D01*
G01X1403018Y-2295121D01*
G01X1406066Y-2301217D01*
G01X1412162Y-2307567D01*
G01X1418512Y-2310615D01*
G01X1430704Y-2310615D01*
G01X1437054Y-2307567D01*
G01X1443150Y-2301217D01*
G01X1446198Y-2295121D01*
G01X1446198Y-2285723D01*
G01X1430704Y-2285723D02*
G01X1446198Y-2285723D01*
G01X1476424Y-2245591D02*
G01X1476424Y-2310615D01*
G01X1519604Y-2245591D02*
G01X1519604Y-2310615D01*
G01X1476424Y-2276579D02*
G01X1519604Y-2276579D01*
G01X1087317Y-13155555D02*
G01X1080967Y-13149459D01*
G01X1071823Y-13146411D01*
G01X1059377Y-13146411D01*
G01X1049979Y-13149459D01*
G01X1043883Y-13155555D01*
G01X1043883Y-13161905D01*
G01X1046931Y-13168001D01*
G01X1049979Y-13171049D01*
G01X1056329Y-13174097D01*
G01X1074871Y-13180447D01*
G01X1080967Y-13183495D01*
G01X1084015Y-13186543D01*
G01X1087317Y-13192893D01*
G01X1087317Y-13202037D01*
G01X1080967Y-13208387D01*
G01X1071823Y-13211435D01*
G01X1059377Y-13211435D01*
G01X1049979Y-13208387D01*
G01X1043883Y-13202037D01*
G01X1117543Y-13146411D02*
G01X1132783Y-13211435D01*
G01X1148277Y-13146411D02*
G01X1132783Y-13211435D01*
G01X1148277Y-13146411D02*
G01X1163771Y-13211435D01*
G01X1179265Y-13146411D02*
G01X1163771Y-13211435D01*
G01X1212539Y-13161905D02*
G01X1212539Y-13158857D01*
G01X1215587Y-13152507D01*
G01X1218635Y-13149459D01*
G01X1224731Y-13146411D01*
G01X1237177Y-13146411D01*
G01X1243527Y-13149459D01*
G01X1246575Y-13152507D01*
G01X1249623Y-13158857D01*
G01X1249623Y-13164953D01*
G01X1246575Y-13171049D01*
G01X1240225Y-13180447D01*
G01X1209491Y-13211435D01*
G01X1252671Y-13211435D01*
G01X-194856Y-8770074D02*
G01X-241338Y-8770074D01*
G01X-250482Y-8773122D01*
G01X-256832Y-8779472D01*
G01X-259880Y-8788616D01*
G01X-259880Y-8794966D01*
G01X-256832Y-8804110D01*
G01X-250482Y-8810206D01*
G01X-241338Y-8813508D01*
G01X-194856Y-8813508D01*
G01X-194856Y-8880818D02*
G01X-194856Y-8849830D01*
G01X-222542Y-8846782D01*
G01X-219494Y-8849830D01*
G01X-216446Y-8858974D01*
G01X-216446Y-8868372D01*
G01X-219494Y-8877770D01*
G01X-225844Y-8883866D01*
G01X-234988Y-8886914D01*
G01X-241338Y-8886914D01*
G01X-250482Y-8883866D01*
G01X-256832Y-8877770D01*
G01X-259880Y-8868372D01*
G01X-259880Y-8858974D01*
G01X-256832Y-8849830D01*
G01X-253530Y-8846782D01*
G01X-247434Y-8843734D01*
G01X-3871935Y-1437896D02*
G01X-3878031Y-1444246D01*
G01X-3881079Y-1453390D01*
G01X-3881079Y-1465836D01*
G01X-3878031Y-1475234D01*
G01X-3871935Y-1481330D01*
G01X-3865585Y-1481330D01*
G01X-3859489Y-1478282D01*
G01X-3856441Y-1475234D01*
G01X-3853393Y-1468884D01*
G01X-3847043Y-1450342D01*
G01X-3843995Y-1444246D01*
G01X-3840947Y-1441198D01*
G01X-3834597Y-1437896D01*
G01X-3825453Y-1437896D01*
G01X-3819103Y-1444246D01*
G01X-3816055Y-1453390D01*
G01X-3816055Y-1465836D01*
G01X-3819103Y-1475234D01*
G01X-3825453Y-1481330D01*
G01X-3881079Y-1407670D02*
G01X-3816055Y-1392430D01*
G01X-3881079Y-1376936D02*
G01X-3816055Y-1392430D01*
G01X-3881079Y-1376936D02*
G01X-3816055Y-1361442D01*
G01X-3881079Y-1345948D02*
G01X-3816055Y-1361442D01*
G01X-3881079Y-1278638D02*
G01X-3881079Y-1309626D01*
G01X-3853393Y-1312674D01*
G01X-3856441Y-1309626D01*
G01X-3859489Y-1300482D01*
G01X-3859489Y-1291084D01*
G01X-3856441Y-1281686D01*
G01X-3850091Y-1275590D01*
G01X-3840947Y-1272542D01*
G01X-3834597Y-1272542D01*
G01X-3825453Y-1275590D01*
G01X-3819103Y-1281686D01*
G01X-3816055Y-1291084D01*
G01X-3816055Y-1300482D01*
G01X-3819103Y-1309626D01*
G01X-3822405Y-1312674D01*
G01X-3828501Y-1315722D01*
G01X2281335Y-302104D02*
G01X2287431Y-295754D01*
G01X2290479Y-286610D01*
G01X2290479Y-274164D01*
G01X2287431Y-264766D01*
G01X2281335Y-258670D01*
G01X2274985Y-258670D01*
G01X2268889Y-261718D01*
G01X2265841Y-264766D01*
G01X2262793Y-271116D01*
G01X2256443Y-289658D01*
G01X2253395Y-295754D01*
G01X2250347Y-298802D01*
G01X2243997Y-302104D01*
G01X2234853Y-302104D01*
G01X2228503Y-295754D01*
G01X2225455Y-286610D01*
G01X2225455Y-274164D01*
G01X2228503Y-264766D01*
G01X2234853Y-258670D01*
G01X2290479Y-332330D02*
G01X2225455Y-347570D01*
G01X2290479Y-363064D02*
G01X2225455Y-347570D01*
G01X2290479Y-363064D02*
G01X2225455Y-378558D01*
G01X2290479Y-394052D02*
G01X2225455Y-378558D01*
G01X2281335Y-461362D02*
G01X2287431Y-458314D01*
G01X2290479Y-448916D01*
G01X2290479Y-442820D01*
G01X2287431Y-433422D01*
G01X2278033Y-427326D01*
G01X2262793Y-424278D01*
G01X2247299Y-424278D01*
G01X2234853Y-427326D01*
G01X2228503Y-433422D01*
G01X2225455Y-442820D01*
G01X2225455Y-445868D01*
G01X2228503Y-455012D01*
G01X2234853Y-461362D01*
G01X2243997Y-464410D01*
G01X2247299Y-464410D01*
G01X2256443Y-461362D01*
G01X2262793Y-455012D01*
G01X2265841Y-445868D01*
G01X2265841Y-442820D01*
G01X2262793Y-433422D01*
G01X2256443Y-427326D01*
G01X2247299Y-424278D01*
G01X-1588580Y137301D02*
G01X-1588580Y90819D01*
G01X-1585532Y81675D01*
G01X-1579182Y75325D01*
G01X-1570038Y72277D01*
G01X-1563688Y72277D01*
G01X-1554544Y75325D01*
G01X-1548448Y81675D01*
G01X-1545146Y90819D01*
G01X-1545146Y137301D01*
G01X-1484186Y137301D02*
G01X-1514920Y94121D01*
G01X-1468692Y94121D01*
G01X-1484186Y137301D02*
G01X-1484186Y72277D01*
G01X-1153117Y-20376061D02*
G01X-1147021Y-20369711D01*
G01X-1143973Y-20360567D01*
G01X-1143973Y-20348121D01*
G01X-1147021Y-20338723D01*
G01X-1153117Y-20332627D01*
G01X-1159467Y-20332627D01*
G01X-1165563Y-20335675D01*
G01X-1168611Y-20338723D01*
G01X-1171659Y-20345073D01*
G01X-1178009Y-20363615D01*
G01X-1181057Y-20369711D01*
G01X-1184105Y-20372759D01*
G01X-1190455Y-20376061D01*
G01X-1199599Y-20376061D01*
G01X-1205949Y-20369711D01*
G01X-1208997Y-20360567D01*
G01X-1208997Y-20348121D01*
G01X-1205949Y-20338723D01*
G01X-1199599Y-20332627D01*
G01X-1143973Y-20406287D02*
G01X-1208997Y-20421527D01*
G01X-1143973Y-20437021D02*
G01X-1208997Y-20421527D01*
G01X-1143973Y-20437021D02*
G01X-1208997Y-20452515D01*
G01X-1143973Y-20468009D02*
G01X-1208997Y-20452515D01*
G01X-1143973Y-20541415D02*
G01X-1208997Y-20510427D01*
G01X-1143973Y-20498235D02*
G01X-1143973Y-20541415D01*
G01X514583Y-20376061D02*
G01X520679Y-20369711D01*
G01X523727Y-20360567D01*
G01X523727Y-20348121D01*
G01X520679Y-20338723D01*
G01X514583Y-20332627D01*
G01X508233Y-20332627D01*
G01X502137Y-20335675D01*
G01X499089Y-20338723D01*
G01X496041Y-20345073D01*
G01X489691Y-20363615D01*
G01X486643Y-20369711D01*
G01X483595Y-20372759D01*
G01X477245Y-20376061D01*
G01X468101Y-20376061D01*
G01X461751Y-20369711D01*
G01X458703Y-20360567D01*
G01X458703Y-20348121D01*
G01X461751Y-20338723D01*
G01X468101Y-20332627D01*
G01X523727Y-20406287D02*
G01X458703Y-20421527D01*
G01X523727Y-20437021D02*
G01X458703Y-20421527D01*
G01X523727Y-20437021D02*
G01X458703Y-20452515D01*
G01X523727Y-20468009D02*
G01X458703Y-20452515D01*
G01X523727Y-20513475D02*
G01X520679Y-20504331D01*
G01X514583Y-20501283D01*
G01X508233Y-20501283D01*
G01X502137Y-20504331D01*
G01X499089Y-20510427D01*
G01X496041Y-20522873D01*
G01X492739Y-20532271D01*
G01X486643Y-20538367D01*
G01X480547Y-20541415D01*
G01X471149Y-20541415D01*
G01X465053Y-20538367D01*
G01X461751Y-20535319D01*
G01X458703Y-20525921D01*
G01X458703Y-20513475D01*
G01X461751Y-20504331D01*
G01X465053Y-20501283D01*
G01X471149Y-20498235D01*
G01X480547Y-20498235D01*
G01X486643Y-20501283D01*
G01X492739Y-20507379D01*
G01X496041Y-20516777D01*
G01X499089Y-20528969D01*
G01X502137Y-20535319D01*
G01X508233Y-20538367D01*
G01X514583Y-20538367D01*
G01X520679Y-20535319D01*
G01X523727Y-20525921D01*
G01X523727Y-20513475D01*
G01X-1400280Y-6725388D02*
G01X-1400280Y-6790412D01*
G01X-1400280Y-6725388D02*
G01X-1375388Y-6790412D01*
G01X-1350750Y-6725388D02*
G01X-1375388Y-6790412D01*
G01X-1350750Y-6725388D02*
G01X-1350750Y-6790412D01*
G01X-1283440Y-6746978D02*
G01X-1283440Y-6790412D01*
G01X-1283440Y-6756376D02*
G01X-1289790Y-6750026D01*
G01X-1295886Y-6746978D01*
G01X-1305284Y-6746978D01*
G01X-1311380Y-6750026D01*
G01X-1317476Y-6756376D01*
G01X-1320524Y-6765520D01*
G01X-1320524Y-6771870D01*
G01X-1317476Y-6781014D01*
G01X-1311380Y-6787364D01*
G01X-1305284Y-6790412D01*
G01X-1295886Y-6790412D01*
G01X-1289790Y-6787364D01*
G01X-1283440Y-6781014D01*
G01X-1219178Y-6756376D02*
G01X-1222480Y-6750026D01*
G01X-1231624Y-6746978D01*
G01X-1241022Y-6746978D01*
G01X-1250166Y-6750026D01*
G01X-1253214Y-6756376D01*
G01X-1250166Y-6762472D01*
G01X-1244070Y-6765520D01*
G01X-1228576Y-6768568D01*
G01X-1222480Y-6771870D01*
G01X-1219178Y-6777966D01*
G01X-1219178Y-6781014D01*
G01X-1222480Y-6787364D01*
G01X-1231624Y-6790412D01*
G01X-1241022Y-6790412D01*
G01X-1250166Y-6787364D01*
G01X-1253214Y-6781014D01*
G01X-1179808Y-6725388D02*
G01X-1179808Y-6777966D01*
G01X-1176760Y-6787364D01*
G01X-1170410Y-6790412D01*
G01X-1164314Y-6790412D01*
G01X-1188952Y-6746978D02*
G01X-1167362Y-6746978D01*
G01X-1134088Y-6765520D02*
G01X-1097004Y-6765520D01*
G01X-1097004Y-6759424D01*
G01X-1100052Y-6753074D01*
G01X-1103354Y-6750026D01*
G01X-1109450Y-6746978D01*
G01X-1118848Y-6746978D01*
G01X-1124944Y-6750026D01*
G01X-1131040Y-6756376D01*
G01X-1134088Y-6765520D01*
G01X-1134088Y-6771870D01*
G01X-1131040Y-6781014D01*
G01X-1124944Y-6787364D01*
G01X-1118848Y-6790412D01*
G01X-1109450Y-6790412D01*
G01X-1103354Y-6787364D01*
G01X-1097004Y-6781014D01*
G01X-1066778Y-6746978D02*
G01X-1066778Y-6790412D01*
G01X-1066778Y-6765520D02*
G01X-1063730Y-6756376D01*
G01X-1057634Y-6750026D01*
G01X-1051538Y-6746978D01*
G01X-1042140Y-6746978D01*
G01X-1011914Y-6812002D02*
G01X-956288Y-6812002D01*
G01X-888978Y-6746978D02*
G01X-888978Y-6796508D01*
G01X-892026Y-6805906D01*
G01X-895328Y-6808954D01*
G01X-901424Y-6812002D01*
G01X-910822Y-6812002D01*
G01X-916918Y-6808954D01*
G01X-888978Y-6756376D02*
G01X-895328Y-6750026D01*
G01X-901424Y-6746978D01*
G01X-910822Y-6746978D01*
G01X-916918Y-6750026D01*
G01X-923014Y-6756376D01*
G01X-926062Y-6765520D01*
G01X-926062Y-6771870D01*
G01X-923014Y-6781014D01*
G01X-916918Y-6787364D01*
G01X-910822Y-6790412D01*
G01X-901424Y-6790412D01*
G01X-895328Y-6787364D01*
G01X-888978Y-6781014D01*
G01X-821668Y-6746978D02*
G01X-821668Y-6790412D01*
G01X-821668Y-6756376D02*
G01X-828018Y-6750026D01*
G01X-834114Y-6746978D01*
G01X-843512Y-6746978D01*
G01X-849608Y-6750026D01*
G01X-855704Y-6756376D01*
G01X-858752Y-6765520D01*
G01X-858752Y-6771870D01*
G01X-855704Y-6781014D01*
G01X-849608Y-6787364D01*
G01X-843512Y-6790412D01*
G01X-834114Y-6790412D01*
G01X-828018Y-6787364D01*
G01X-821668Y-6781014D01*
G01X-791442Y-6725388D02*
G01X-788394Y-6728436D01*
G01X-785346Y-6725388D01*
G01X-788394Y-6722340D01*
G01X-791442Y-6725388D01*
G01X-788394Y-6746978D02*
G01X-788394Y-6790412D01*
G01X-755120Y-6746978D02*
G01X-755120Y-6790412D01*
G01X-755120Y-6759424D02*
G01X-745976Y-6750026D01*
G01X-739880Y-6746978D01*
G01X-730482Y-6746978D01*
G01X-724386Y-6750026D01*
G01X-721084Y-6759424D01*
G01X-721084Y-6790412D01*
G01X-3916534Y-21801980D02*
G01X-3851510Y-21801980D01*
G01X-3916534Y-21801980D02*
G01X-3916534Y-21780390D01*
G01X-3913486Y-21770992D01*
G01X-3907390Y-21764896D01*
G01X-3901040Y-21761848D01*
G01X-3891896Y-21758546D01*
G01X-3876402Y-21758546D01*
G01X-3867004Y-21761848D01*
G01X-3860908Y-21764896D01*
G01X-3854558Y-21770992D01*
G01X-3851510Y-21780390D01*
G01X-3851510Y-21801980D01*
G01X-3904088Y-21728320D02*
G01X-3907390Y-21722224D01*
G01X-3916534Y-21713080D01*
G01X-3851510Y-21713080D01*
G01X-3829920Y-21682854D02*
G01X-3829920Y-21627228D01*
G01X-3916534Y-21597002D02*
G01X-3851510Y-21597002D01*
G01X-3916534Y-21597002D02*
G01X-3916534Y-21556870D01*
G01X-3885546Y-21597002D02*
G01X-3885546Y-21572364D01*
G01X-3916534Y-21502006D02*
G01X-3851510Y-21526644D01*
G01X-3916534Y-21502006D02*
G01X-3851510Y-21477114D01*
G01X-3873354Y-21517500D02*
G01X-3873354Y-21486512D01*
G01X-3916534Y-21446888D02*
G01X-3851510Y-21446888D01*
G01X-3916534Y-21446888D02*
G01X-3916534Y-21425298D01*
G01X-3913486Y-21416154D01*
G01X-3907390Y-21409804D01*
G01X-3901040Y-21406756D01*
G01X-3891896Y-21403708D01*
G01X-3876402Y-21403708D01*
G01X-3867004Y-21406756D01*
G01X-3860908Y-21409804D01*
G01X-3854558Y-21416154D01*
G01X-3851510Y-21425298D01*
G01X-3851510Y-21446888D01*
G01X-3916534Y-21373482D02*
G01X-3851510Y-21373482D01*
G01X-3916534Y-21373482D02*
G01X-3916534Y-21333350D01*
G01X-3885546Y-21373482D02*
G01X-3885546Y-21348844D01*
G01X-3851510Y-21373482D02*
G01X-3851510Y-21333350D01*
G01X-3916534Y-21303124D02*
G01X-3851510Y-21303124D01*
G01X-3916534Y-21303124D02*
G01X-3916534Y-21275438D01*
G01X-3913486Y-21266040D01*
G01X-3910438Y-21262992D01*
G01X-3904088Y-21259944D01*
G01X-3897992Y-21259944D01*
G01X-3891896Y-21262992D01*
G01X-3888848Y-21266040D01*
G01X-3885546Y-21275438D01*
G01X-3885546Y-21303124D01*
G01X-3885546Y-21281534D02*
G01X-3851510Y-21259944D01*
G01X1083456Y-21801980D02*
G01X1148480Y-21801980D01*
G01X1083456Y-21801980D02*
G01X1083456Y-21780390D01*
G01X1086504Y-21770992D01*
G01X1092600Y-21764896D01*
G01X1098950Y-21761848D01*
G01X1108094Y-21758546D01*
G01X1123588Y-21758546D01*
G01X1132986Y-21761848D01*
G01X1139082Y-21764896D01*
G01X1145432Y-21770992D01*
G01X1148480Y-21780390D01*
G01X1148480Y-21801980D01*
G01X1098950Y-21725272D02*
G01X1095902Y-21725272D01*
G01X1089552Y-21722224D01*
G01X1086504Y-21719176D01*
G01X1083456Y-21713080D01*
G01X1083456Y-21700634D01*
G01X1086504Y-21694284D01*
G01X1089552Y-21691236D01*
G01X1095902Y-21688188D01*
G01X1101998Y-21688188D01*
G01X1108094Y-21691236D01*
G01X1117492Y-21697586D01*
G01X1148480Y-21728320D01*
G01X1148480Y-21685140D01*
G01X1170070Y-21654914D02*
G01X1170070Y-21599288D01*
G01X1083456Y-21569062D02*
G01X1148480Y-21569062D01*
G01X1083456Y-21569062D02*
G01X1083456Y-21528930D01*
G01X1114444Y-21569062D02*
G01X1114444Y-21544424D01*
G01X1083456Y-21474066D02*
G01X1148480Y-21498704D01*
G01X1083456Y-21474066D02*
G01X1148480Y-21449174D01*
G01X1126636Y-21489560D02*
G01X1126636Y-21458572D01*
G01X1083456Y-21418948D02*
G01X1148480Y-21418948D01*
G01X1083456Y-21418948D02*
G01X1083456Y-21397358D01*
G01X1086504Y-21388214D01*
G01X1092600Y-21381864D01*
G01X1098950Y-21378816D01*
G01X1108094Y-21375768D01*
G01X1123588Y-21375768D01*
G01X1132986Y-21378816D01*
G01X1139082Y-21381864D01*
G01X1145432Y-21388214D01*
G01X1148480Y-21397358D01*
G01X1148480Y-21418948D01*
G01X1083456Y-21345542D02*
G01X1148480Y-21345542D01*
G01X1083456Y-21345542D02*
G01X1083456Y-21305410D01*
G01X1114444Y-21345542D02*
G01X1114444Y-21320904D01*
G01X1148480Y-21345542D02*
G01X1148480Y-21305410D01*
G01X1083456Y-21275184D02*
G01X1148480Y-21275184D01*
G01X1083456Y-21275184D02*
G01X1083456Y-21247498D01*
G01X1086504Y-21238100D01*
G01X1089552Y-21235052D01*
G01X1095902Y-21232004D01*
G01X1101998Y-21232004D01*
G01X1108094Y-21235052D01*
G01X1111142Y-21238100D01*
G01X1114444Y-21247498D01*
G01X1114444Y-21275184D01*
G01X1114444Y-21253594D02*
G01X1148480Y-21232004D01*
G01X-1143973Y-15882627D02*
G01X-1208997Y-15882627D01*
G01X-1143973Y-15882627D02*
G01X-1143973Y-15922759D01*
G01X-1174961Y-15882627D02*
G01X-1174961Y-15907519D01*
G01X-1143973Y-15952985D02*
G01X-1208997Y-15952985D01*
G01X-1143973Y-15983211D02*
G01X-1208997Y-15983211D01*
G01X-1208997Y-15983211D02*
G01X-1208997Y-16020295D01*
G01X-1143973Y-16072111D02*
G01X-1208997Y-16072111D01*
G01X-1143973Y-16050521D02*
G01X-1143973Y-16093701D01*
G01X-1143973Y-16123927D02*
G01X-1208997Y-16123927D01*
G01X-1143973Y-16123927D02*
G01X-1143973Y-16164059D01*
G01X-1174961Y-16123927D02*
G01X-1174961Y-16148565D01*
G01X-1208997Y-16123927D02*
G01X-1208997Y-16164059D01*
G01X-1143973Y-16194285D02*
G01X-1208997Y-16194285D01*
G01X-1143973Y-16194285D02*
G01X-1143973Y-16221971D01*
G01X-1147021Y-16231369D01*
G01X-1150069Y-16234417D01*
G01X-1156419Y-16237465D01*
G01X-1162515Y-16237465D01*
G01X-1168611Y-16234417D01*
G01X-1171659Y-16231369D01*
G01X-1174961Y-16221971D01*
G01X-1174961Y-16194285D01*
G01X-1174961Y-16215875D02*
G01X-1208997Y-16237465D01*
G01X-1230587Y-16267691D02*
G01X-1230587Y-16323317D01*
G01X-1153117Y-16396723D02*
G01X-1147021Y-16390627D01*
G01X-1143973Y-16381229D01*
G01X-1143973Y-16368783D01*
G01X-1147021Y-16359639D01*
G01X-1153117Y-16353543D01*
G01X-1159467Y-16353543D01*
G01X-1165563Y-16356591D01*
G01X-1168611Y-16359639D01*
G01X-1171659Y-16365735D01*
G01X-1178009Y-16384277D01*
G01X-1181057Y-16390627D01*
G01X-1184105Y-16393675D01*
G01X-1190455Y-16396723D01*
G01X-1199599Y-16396723D01*
G01X-1205949Y-16390627D01*
G01X-1208997Y-16381229D01*
G01X-1208997Y-16368783D01*
G01X-1205949Y-16359639D01*
G01X-1199599Y-16353543D01*
G01X-1143973Y-16426949D02*
G01X-1208997Y-16426949D01*
G01X-1143973Y-16426949D02*
G01X-1143973Y-16467081D01*
G01X-1174961Y-16426949D02*
G01X-1174961Y-16451587D01*
G01X-1208997Y-16426949D02*
G01X-1208997Y-16467081D01*
G01X-1143973Y-16497307D02*
G01X-1208997Y-16497307D01*
G01X-1208997Y-16497307D02*
G01X-1208997Y-16534391D01*
G01X-1230587Y-16564617D02*
G01X-1230587Y-16620243D01*
G01X-1143973Y-16656565D02*
G01X-1143973Y-16690601D01*
G01X-1168611Y-16672059D01*
G01X-1168611Y-16681203D01*
G01X-1171659Y-16687553D01*
G01X-1174961Y-16690601D01*
G01X-1184105Y-16693649D01*
G01X-1190455Y-16693649D01*
G01X-1199599Y-16690601D01*
G01X-1205949Y-16684505D01*
G01X-1208997Y-16675107D01*
G01X-1208997Y-16665709D01*
G01X-1205949Y-16656565D01*
G01X-1202647Y-16653517D01*
G01X-1196551Y-16650469D01*
G01X523727Y-15882627D02*
G01X458703Y-15882627D01*
G01X523727Y-15882627D02*
G01X523727Y-15922759D01*
G01X492739Y-15882627D02*
G01X492739Y-15907519D01*
G01X523727Y-15952985D02*
G01X458703Y-15952985D01*
G01X523727Y-15983211D02*
G01X458703Y-15983211D01*
G01X458703Y-15983211D02*
G01X458703Y-16020295D01*
G01X523727Y-16072111D02*
G01X458703Y-16072111D01*
G01X523727Y-16050521D02*
G01X523727Y-16093701D01*
G01X523727Y-16123927D02*
G01X458703Y-16123927D01*
G01X523727Y-16123927D02*
G01X523727Y-16164059D01*
G01X492739Y-16123927D02*
G01X492739Y-16148565D01*
G01X458703Y-16123927D02*
G01X458703Y-16164059D01*
G01X523727Y-16194285D02*
G01X458703Y-16194285D01*
G01X523727Y-16194285D02*
G01X523727Y-16221971D01*
G01X520679Y-16231369D01*
G01X517631Y-16234417D01*
G01X511281Y-16237465D01*
G01X505185Y-16237465D01*
G01X499089Y-16234417D01*
G01X496041Y-16231369D01*
G01X492739Y-16221971D01*
G01X492739Y-16194285D01*
G01X492739Y-16215875D02*
G01X458703Y-16237465D01*
G01X437113Y-16267691D02*
G01X437113Y-16323317D01*
G01X514583Y-16396723D02*
G01X520679Y-16390627D01*
G01X523727Y-16381229D01*
G01X523727Y-16368783D01*
G01X520679Y-16359639D01*
G01X514583Y-16353543D01*
G01X508233Y-16353543D01*
G01X502137Y-16356591D01*
G01X499089Y-16359639D01*
G01X496041Y-16365735D01*
G01X489691Y-16384277D01*
G01X486643Y-16390627D01*
G01X483595Y-16393675D01*
G01X477245Y-16396723D01*
G01X468101Y-16396723D01*
G01X461751Y-16390627D01*
G01X458703Y-16381229D01*
G01X458703Y-16368783D01*
G01X461751Y-16359639D01*
G01X468101Y-16353543D01*
G01X523727Y-16426949D02*
G01X458703Y-16426949D01*
G01X523727Y-16426949D02*
G01X523727Y-16467081D01*
G01X492739Y-16426949D02*
G01X492739Y-16451587D01*
G01X458703Y-16426949D02*
G01X458703Y-16467081D01*
G01X523727Y-16497307D02*
G01X458703Y-16497307D01*
G01X458703Y-16497307D02*
G01X458703Y-16534391D01*
G01X437113Y-16564617D02*
G01X437113Y-16620243D01*
G01X523727Y-16681203D02*
G01X480547Y-16650469D01*
G01X480547Y-16696697D01*
G01X523727Y-16681203D02*
G01X458703Y-16681203D01*
G04 Text End*

G04 PolygonModel Start*
G54D11*
G01X-2788213Y-2731509D02*
G01X-2788213Y-2365225D01*
G01X-2788213Y-2365225D02*
G01X-3804213Y-2365225D01*
G01X-3804213Y-3127738D02*
G01X-3804213Y-3482825D01*
G01X-3804213Y-3482825D02*
G01X-2788213Y-3482825D01*
G01X-2788213Y-3482825D02*
G01X-2788213Y-3127738D01*
G01X-3804213Y-2377925D02*
G01X-3804213Y-2731509D01*
G01X-2788213Y-5518592D02*
G01X-2788213Y-5152309D01*
G01X-2788213Y-5152309D02*
G01X-3804213Y-5152309D01*
G01X-3804213Y-5914822D02*
G01X-3804213Y-6269909D01*
G01X-3804213Y-6269909D02*
G01X-2788213Y-6269909D01*
G01X-2788213Y-6269909D02*
G01X-2788213Y-5914822D01*
G01X-3804213Y-5165009D02*
G01X-3804213Y-5518592D01*
G01X-2788213Y-8314686D02*
G01X-2788213Y-7948403D01*
G01X-2788213Y-7948403D02*
G01X-3804213Y-7948403D01*
G01X-3804213Y-8710916D02*
G01X-3804213Y-9066003D01*
G01X-3804213Y-9066003D02*
G01X-2788213Y-9066003D01*
G01X-2788213Y-9066003D02*
G01X-2788213Y-8710916D01*
G01X-3804213Y-7961103D02*
G01X-3804213Y-8314686D01*
G01X-2788213Y-11104952D02*
G01X-2788213Y-10738669D01*
G01X-2788213Y-10738669D02*
G01X-3804213Y-10738669D01*
G01X-3804213Y-11501182D02*
G01X-3804213Y-11856269D01*
G01X-3804213Y-11856269D02*
G01X-2788213Y-11856269D01*
G01X-2788213Y-11856269D02*
G01X-2788213Y-11501182D01*
G01X-3804213Y-10751369D02*
G01X-3804213Y-11104952D01*
G01X-3886211Y-13449592D02*
G01X-3886211Y-13832416D01*
G01X-2706214Y-13832403D02*
G01X-2706201Y-13449592D01*
G01X-2706214Y-14649600D02*
G01X-3886211Y-14649595D01*
G01X-3886211Y-13449600D02*
G01X-3602793Y-13449592D01*
G01X-3575613Y-13947994D02*
G01X-3016813Y-13947994D01*
G01X-3886211Y-13449592D02*
G01X-3886211Y-13832416D01*
G01X-3886211Y-14266771D02*
G01X-3886211Y-14649595D01*
G01X-2706214Y-14649595D02*
G01X-2706214Y-14266784D01*
G01X-2817407Y-13846394D02*
G01X-2898705Y-13846394D01*
G01X-2817407Y-14252794D02*
G01X-2898705Y-14252794D01*
G01X-3886211Y-14266771D02*
G01X-3886211Y-14649595D01*
G01X-3701343Y-13846394D02*
G01X-3774992Y-13846394D01*
G01X-3774992Y-14252794D02*
G01X-3677213Y-14252794D01*
G01X-3497632Y-13449592D02*
G01X-3094793Y-13449592D01*
G01X-2989632Y-13449592D02*
G01X-2706214Y-13449592D01*
G01X-3118413Y-13947994D02*
G02X-3474013Y-13947994I-177800J-99403D01*
G01X-1875899Y-11470000D02*
G01X-1875899Y-11330000D01*
G01X-1275901Y-11470000D02*
G01X-1275901Y-11330000D01*
G01X-1803332Y-11699999D02*
G01X-1355901Y-11699999D01*
G01X-1803332Y-11100001D02*
G01X-1348468Y-11100001D01*
G01X-208199Y-11470000D02*
G01X-208199Y-11330000D01*
G01X391799Y-11470000D02*
G01X391799Y-11330000D01*
G01X-135632Y-11699999D02*
G01X311799Y-11699999D01*
G01X-135632Y-11100001D02*
G01X319232Y-11100001D01*
G01X1819600Y-12349240D02*
G01X1819600Y-12317000D01*
G01X1819600Y-12317000D02*
G01X1260800Y-12317000D01*
G01X1260800Y-12317000D02*
G01X1260800Y-12349240D01*
G01X1260800Y-12538760D02*
G01X1260800Y-12571000D01*
G01X1260800Y-12571000D02*
G01X1819600Y-12571000D01*
G01X1819600Y-12571000D02*
G01X1819600Y-12538760D01*
G01X2211787Y-11104952D02*
G01X2211787Y-10738669D01*
G01X2211787Y-10738669D02*
G01X1195787Y-10738669D01*
G01X1195787Y-11501182D02*
G01X1195787Y-11856269D01*
G01X1195787Y-11856269D02*
G01X2211787Y-11856269D01*
G01X2211787Y-11856269D02*
G01X2211787Y-11501182D01*
G01X1195787Y-10751369D02*
G01X1195787Y-11104952D01*
G01X1840000Y-9671740D02*
G01X1840000Y-9639500D01*
G01X1840000Y-9639500D02*
G01X1281200Y-9639500D01*
G01X1281200Y-9639500D02*
G01X1281200Y-9671740D01*
G01X1281200Y-9861260D02*
G01X1281200Y-9893500D01*
G01X1281200Y-9893500D02*
G01X1840000Y-9893500D01*
G01X1840000Y-9893500D02*
G01X1840000Y-9861260D01*
G01X1124960Y-7118500D02*
G01X1157200Y-7118500D01*
G01X1157200Y-7118500D02*
G01X1157200Y-6559700D01*
G01X1157200Y-6559700D02*
G01X1124960Y-6559700D01*
G01X935440Y-6559700D02*
G01X903200Y-6559700D01*
G01X903200Y-6559700D02*
G01X903200Y-7118500D01*
G01X903200Y-7118500D02*
G01X935440Y-7118500D01*
G01X1778800Y-4066840D02*
G01X1778800Y-4034600D01*
G01X1778800Y-4034600D02*
G01X1220000Y-4034600D01*
G01X1220000Y-4034600D02*
G01X1220000Y-4066840D01*
G01X1220000Y-4256360D02*
G01X1220000Y-4288600D01*
G01X1220000Y-4288600D02*
G01X1778800Y-4288600D01*
G01X1778800Y-4288600D02*
G01X1778800Y-4256360D01*
G01X2211787Y-8313207D02*
G01X2211787Y-7946924D01*
G01X2211787Y-7946924D02*
G01X1195787Y-7946924D01*
G01X1195787Y-8709437D02*
G01X1195787Y-9064524D01*
G01X1195787Y-9064524D02*
G01X2211787Y-9064524D01*
G01X2211787Y-9064524D02*
G01X2211787Y-8709437D01*
G01X1195787Y-7959624D02*
G01X1195787Y-8313207D01*
G01X-3147800Y-12486940D02*
G01X-3147800Y-12454700D01*
G01X-3147800Y-12454700D02*
G01X-3706600Y-12454700D01*
G01X-3706600Y-12454700D02*
G01X-3706600Y-12486940D01*
G01X-3706600Y-12676460D02*
G01X-3706600Y-12708700D01*
G01X-3706600Y-12708700D02*
G01X-3147800Y-12708700D01*
G01X-3147800Y-12708700D02*
G01X-3147800Y-12676460D01*
G01X-3147800Y-9738040D02*
G01X-3147800Y-9705800D01*
G01X-3147800Y-9705800D02*
G01X-3706600Y-9705800D01*
G01X-3706600Y-9705800D02*
G01X-3706600Y-9738040D01*
G01X-3706600Y-9927560D02*
G01X-3706600Y-9959800D01*
G01X-3706600Y-9959800D02*
G01X-3147800Y-9959800D01*
G01X-3147800Y-9959800D02*
G01X-3147800Y-9927560D01*
G01X-2523400Y-7137860D02*
G01X-2523400Y-7170100D01*
G01X-2523400Y-7170100D02*
G01X-1964600Y-7170100D01*
G01X-1964600Y-7170100D02*
G01X-1964600Y-7137860D01*
G01X-1964600Y-6948340D02*
G01X-1964600Y-6916100D01*
G01X-1964600Y-6916100D02*
G01X-2523400Y-6916100D01*
G01X-2523400Y-6916100D02*
G01X-2523400Y-6948340D01*
G01X-3173300Y-4158640D02*
G01X-3173300Y-4126400D01*
G01X-3173300Y-4126400D02*
G01X-3732100Y-4126400D01*
G01X-3732100Y-4126400D02*
G01X-3732100Y-4158640D01*
G01X-3732100Y-4348160D02*
G01X-3732100Y-4380400D01*
G01X-3732100Y-4380400D02*
G01X-3173300Y-4380400D01*
G01X-3173300Y-4380400D02*
G01X-3173300Y-4348160D01*
G01X-2260400Y-15353140D02*
G01X-2260400Y-15320900D01*
G01X-2260400Y-15320900D02*
G01X-2819200Y-15320900D01*
G01X-2819200Y-15320900D02*
G01X-2819200Y-15353140D01*
G01X-2819200Y-15542660D02*
G01X-2819200Y-15574900D01*
G01X-2819200Y-15574900D02*
G01X-2260400Y-15574900D01*
G01X-2260400Y-15574900D02*
G01X-2260400Y-15542660D01*
G01X1233100Y-15388840D02*
G01X1233100Y-15356600D01*
G01X1233100Y-15356600D02*
G01X674300Y-15356600D01*
G01X674300Y-15356600D02*
G01X674300Y-15388840D01*
G01X674300Y-15578360D02*
G01X674300Y-15610600D01*
G01X674300Y-15610600D02*
G01X1233100Y-15610600D01*
G01X1233100Y-15610600D02*
G01X1233100Y-15578360D01*
G01X-291800Y-6310840D02*
G01X-291800Y-6278600D01*
G01X-291800Y-6278600D02*
G01X-850600Y-6278600D01*
G01X-850600Y-6278600D02*
G01X-850600Y-6310840D01*
G01X-850600Y-6500360D02*
G01X-850600Y-6532600D01*
G01X-850600Y-6532600D02*
G01X-291800Y-6532600D01*
G01X-291800Y-6532600D02*
G01X-291800Y-6500360D01*
G01X2211787Y-5523728D02*
G01X2211787Y-5157445D01*
G01X2211787Y-5157445D02*
G01X1195787Y-5157445D01*
G01X1195787Y-5919958D02*
G01X1195787Y-6275045D01*
G01X1195787Y-6275045D02*
G01X2211787Y-6275045D01*
G01X2211787Y-6275045D02*
G01X2211787Y-5919958D01*
G01X1195787Y-5170145D02*
G01X1195787Y-5523728D01*
G01X2211787Y-2731509D02*
G01X2211787Y-2365225D01*
G01X2211787Y-2365225D02*
G01X1195787Y-2365225D01*
G01X1195787Y-3127738D02*
G01X1195787Y-3482825D01*
G01X1195787Y-3482825D02*
G01X2211787Y-3482825D01*
G01X2211787Y-3482825D02*
G01X2211787Y-3127738D01*
G01X1195787Y-2377925D02*
G01X1195787Y-2731509D01*
G01X1113788Y-13449595D02*
G01X1113788Y-13832419D01*
G01X2293786Y-13832406D02*
G01X2293799Y-13449595D01*
G01X2293786Y-14649603D02*
G01X1113788Y-14649598D01*
G01X1113788Y-13449603D02*
G01X1397207Y-13449595D01*
G01X1424387Y-13947997D02*
G01X1983187Y-13947997D01*
G01X1113788Y-13449595D02*
G01X1113788Y-13832419D01*
G01X1113788Y-14266774D02*
G01X1113788Y-14649598D01*
G01X2293786Y-14649598D02*
G01X2293786Y-14266787D01*
G01X2182593Y-13846397D02*
G01X2101295Y-13846397D01*
G01X2182593Y-14252797D02*
G01X2101295Y-14252797D01*
G01X1113788Y-14266774D02*
G01X1113788Y-14649598D01*
G01X1298657Y-13846397D02*
G01X1225007Y-13846397D01*
G01X1225007Y-14252797D02*
G01X1322787Y-14252797D01*
G01X1502368Y-13449595D02*
G01X1905207Y-13449595D01*
G01X2010368Y-13449595D02*
G01X2293786Y-13449595D01*
G01X1881587Y-13947997D02*
G02X1525987Y-13947997I-177800J-99403D01*
G54D10*
G01X-981339Y-8812981D02*
G01X-467061Y-8812981D01*
G01X-467061Y-8812981D02*
G01X-467061Y-9608219D01*
G01X-467061Y-9608219D02*
G01X-981339Y-9608219D01*
G01X-981339Y-9608219D02*
G01X-981339Y-8812981D01*
G54D11*
G01X-2976600Y-1169999D02*
G01X-3116600Y-1169999D01*
G01X-2976600Y-570001D02*
G01X-3116600Y-570001D01*
G01X-2746601Y-1097432D02*
G01X-2746601Y-650000D01*
G01X-3346599Y-1097432D02*
G01X-3346599Y-642568D01*
G01X1386000Y-570001D02*
G01X1526000Y-570001D01*
G01X1386000Y-1169999D02*
G01X1526000Y-1169999D01*
G01X1156000Y-642568D02*
G01X1156000Y-1090000D01*
G01X1755999Y-642568D02*
G01X1755999Y-1097432D01*
G01X-481032Y-1389628D02*
G01X-481194Y-1389628D01*
G01X-481194Y-1389628D02*
G01X-481194Y-1434629D01*
G01X-1112331Y-1389628D02*
G01X-1111193Y-1389628D01*
G01X-1111193Y-1389628D02*
G01X-1111193Y-1434629D01*
G01X-698080Y-1569627D02*
G01X-646195Y-1569627D01*
G01X-948079Y-1569627D02*
G01X-894310Y-1569627D01*
G01X-948079Y-39630D02*
G01X-644311Y-39630D01*
G01X-1381193Y-591514D02*
G01X-1381193Y-189630D01*
G01X-211195Y-987744D02*
G01X-211195Y-1389628D01*
G01X-211195Y-1389628D02*
G01X-1381193Y-1389628D01*
G01X-1381193Y-1389628D02*
G01X-1381193Y-987744D01*
G01X-1381193Y-189630D02*
G01X-211195Y-189630D01*
G01X-211195Y-189630D02*
G01X-211195Y-591514D01*
G01X-1645900Y-20450001D02*
G01X-1505900Y-20450001D01*
G01X-1645900Y-21049999D02*
G01X-1505900Y-21049999D01*
G01X-1875899Y-20522568D02*
G01X-1875899Y-20969999D01*
G01X-1275901Y-20522568D02*
G01X-1275901Y-20977432D01*
G01X21800Y-20450001D02*
G01X161800Y-20450001D01*
G01X21800Y-21049999D02*
G01X161800Y-21049999D01*
G01X-208199Y-20522568D02*
G01X-208199Y-20969999D01*
G01X391799Y-20522568D02*
G01X391799Y-20977432D01*
G01X-251913Y-7211305D02*
G01X-251913Y-6845022D01*
G01X-251913Y-6845022D02*
G01X-1267913Y-6845022D01*
G01X-1267913Y-7607535D02*
G01X-1267913Y-7962622D01*
G01X-1267913Y-7962622D02*
G01X-251913Y-7962622D01*
G01X-251913Y-7962622D02*
G01X-251913Y-7607535D01*
G01X-1267913Y-6857722D02*
G01X-1267913Y-7211305D01*
G01X-1645900Y-16000001D02*
G01X-1505900Y-16000001D01*
G01X-1645900Y-16599999D02*
G01X-1505900Y-16599999D01*
G01X-1875899Y-16072568D02*
G01X-1875899Y-16519999D01*
G01X-1275901Y-16072568D02*
G01X-1275901Y-16527432D01*
G01X21800Y-16000001D02*
G01X161800Y-16000001D01*
G01X21800Y-16599999D02*
G01X161800Y-16599999D01*
G01X-208199Y-16072568D02*
G01X-208199Y-16519999D01*
G01X391799Y-16072568D02*
G01X391799Y-16527432D01*

G04 Rect Start*
G01X-2755500Y-21796900D02*
G01X-3796900Y-21796900D01*
G01X-3796900Y-15878700D01*
G01X-2755500Y-15878700D01*
G01X-2755500Y-21796900D01*
G01X2244490Y-21796900D02*
G01X1203090Y-21796900D01*
G01X1203090Y-15878700D01*
G01X2244490Y-15878700D01*
G01X2244490Y-21796900D01*
G04 Rect End*

G04 Circle Start*
G01X-3545704Y-2924013D02*
G03X-3046696Y-2924013I249504J0D01*
G03X-3545704Y-2924013I-249504J0D01*
G01X-3545704Y-5711096D02*
G03X-3046696Y-5711096I249504J0D01*
G03X-3545704Y-5711096I-249504J0D01*
G01X-3545704Y-8507190D02*
G03X-3046696Y-8507190I249504J0D01*
G03X-3545704Y-8507190I-249504J0D01*
G01X-3545704Y-11297456D02*
G03X-3046696Y-11297456I249504J0D01*
G03X-3545704Y-11297456I-249504J0D01*
G01X-3728749Y-14049594D02*
G03X-2863676Y-14049594I432537J0D01*
G03X-3728749Y-14049594I-432537J0D01*
G01X-3631493Y-14049594D02*
G03X-2960933Y-14049594I335280J0D01*
G03X-3631493Y-14049594I-335280J0D01*
G01X-3601013Y-14049594D02*
G03X-2991413Y-14049594I304800J0D01*
G03X-3601013Y-14049594I-304800J0D01*
G01X-1702900Y-11400000D02*
G03X-1448900Y-11400000I127000J0D01*
G03X-1702900Y-11400000I-127000J0D01*
G01X-1459416Y-11222200D02*
G03X-1387584Y-11222200I35916J0D01*
G03X-1459416Y-11222200I-35916J0D01*
G01X-1764216Y-11222200D02*
G03X-1692384Y-11222200I35916J0D01*
G03X-1764216Y-11222200I-35916J0D01*
G01X-1764216Y-11577800D02*
G03X-1692384Y-11577800I35916J0D01*
G03X-1764216Y-11577800I-35916J0D01*
G01X-1459416Y-11577800D02*
G03X-1387584Y-11577800I35916J0D01*
G03X-1459416Y-11577800I-35916J0D01*
G01X-35200Y-11400000D02*
G03X218800Y-11400000I127000J0D01*
G03X-35200Y-11400000I-127000J0D01*
G01X208284Y-11222200D02*
G03X280116Y-11222200I35916J0D01*
G03X208284Y-11222200I-35916J0D01*
G01X-96516Y-11222200D02*
G03X-24684Y-11222200I35916J0D01*
G03X-96516Y-11222200I-35916J0D01*
G01X-96516Y-11577800D02*
G03X-24684Y-11577800I35916J0D01*
G03X-96516Y-11577800I-35916J0D01*
G01X208284Y-11577800D02*
G03X280116Y-11577800I35916J0D01*
G03X208284Y-11577800I-35916J0D01*
G01X1454296Y-11297456D02*
G03X1953304Y-11297456I249504J0D01*
G03X1454296Y-11297456I-249504J0D01*
G01X1454296Y-8505711D02*
G03X1953304Y-8505711I249504J0D01*
G03X1454296Y-8505711I-249504J0D01*
G01X1454296Y-5716232D02*
G03X1953304Y-5716232I249504J0D01*
G03X1454296Y-5716232I-249504J0D01*
G01X1454296Y-2924013D02*
G03X1953304Y-2924013I249504J0D01*
G03X1454296Y-2924013I-249504J0D01*
G01X1271251Y-14049597D02*
G03X2136324Y-14049597I432537J0D01*
G03X1271251Y-14049597I-432537J0D01*
G01X1368507Y-14049597D02*
G03X2039067Y-14049597I335280J0D01*
G03X1368507Y-14049597I-335280J0D01*
G01X1398987Y-14049597D02*
G03X2008587Y-14049597I304800J0D01*
G03X1398987Y-14049597I-304800J0D01*
G54D12*
G01X-921101Y-8853095D02*
G03X-891078Y-8853095I15011J0D01*
G03X-921101Y-8853095I-15011J0D01*
G01X-1095421Y-8792465D02*
G03X-1065398Y-8792465I15011J0D01*
G03X-1095421Y-8792465I-15011J0D01*
G54D11*
G01X-3173600Y-870000D02*
G03X-2919600Y-870000I127000J0D01*
G03X-3173600Y-870000I-127000J0D01*
G01X-3260316Y-717600D02*
G03X-3188484Y-717600I35916J0D01*
G03X-3260316Y-717600I-35916J0D01*
G01X-3260316Y-1022400D02*
G03X-3188484Y-1022400I35916J0D01*
G03X-3260316Y-1022400I-35916J0D01*
G01X-2904716Y-1022400D02*
G03X-2832884Y-1022400I35916J0D01*
G03X-2904716Y-1022400I-35916J0D01*
G01X-2904716Y-717600D02*
G03X-2832884Y-717600I35916J0D01*
G03X-2904716Y-717600I-35916J0D01*
G01X1329000Y-870000D02*
G03X1583000Y-870000I127000J0D01*
G03X1329000Y-870000I-127000J0D01*
G01X1597884Y-1022400D02*
G03X1669715Y-1022400I35916J0D01*
G03X1597884Y-1022400I-35916J0D01*
G01X1597884Y-717600D02*
G03X1669715Y-717600I35916J0D01*
G03X1597884Y-717600I-35916J0D01*
G01X1242284Y-717600D02*
G03X1314115Y-717600I35916J0D01*
G03X1242284Y-717600I-35916J0D01*
G01X1242284Y-1022400D02*
G03X1314115Y-1022400I35916J0D01*
G03X1242284Y-1022400I-35916J0D01*
G01X-1096194Y-789629D02*
G03X-496196Y-789629I299999J0D01*
G03X-1096194Y-789629I-299999J0D01*
G01X-1702900Y-20750000D02*
G03X-1448900Y-20750000I127000J0D01*
G03X-1702900Y-20750000I-127000J0D01*
G01X-1434016Y-20902400D02*
G03X-1362184Y-20902400I35916J0D01*
G03X-1434016Y-20902400I-35916J0D01*
G01X-1434016Y-20597600D02*
G03X-1362184Y-20597600I35916J0D01*
G03X-1434016Y-20597600I-35916J0D01*
G01X-1789616Y-20597600D02*
G03X-1717784Y-20597600I35916J0D01*
G03X-1789616Y-20597600I-35916J0D01*
G01X-1789616Y-20902400D02*
G03X-1717784Y-20902400I35916J0D01*
G03X-1789616Y-20902400I-35916J0D01*
G01X-35200Y-20750000D02*
G03X218800Y-20750000I127000J0D01*
G03X-35200Y-20750000I-127000J0D01*
G01X233684Y-20902400D02*
G03X305516Y-20902400I35916J0D01*
G03X233684Y-20902400I-35916J0D01*
G01X233684Y-20597600D02*
G03X305516Y-20597600I35916J0D01*
G03X233684Y-20597600I-35916J0D01*
G01X-121916Y-20597600D02*
G03X-50084Y-20597600I35916J0D01*
G03X-121916Y-20597600I-35916J0D01*
G01X-121916Y-20902400D02*
G03X-50084Y-20902400I35916J0D01*
G03X-121916Y-20902400I-35916J0D01*
G01X-1009404Y-7403809D02*
G03X-510396Y-7403809I249504J0D01*
G03X-1009404Y-7403809I-249504J0D01*
G01X-1702900Y-16300000D02*
G03X-1448900Y-16300000I127000J0D01*
G03X-1702900Y-16300000I-127000J0D01*
G01X-1434016Y-16452400D02*
G03X-1362184Y-16452400I35916J0D01*
G03X-1434016Y-16452400I-35916J0D01*
G01X-1434016Y-16147600D02*
G03X-1362184Y-16147600I35916J0D01*
G03X-1434016Y-16147600I-35916J0D01*
G01X-1789616Y-16147600D02*
G03X-1717784Y-16147600I35916J0D01*
G03X-1789616Y-16147600I-35916J0D01*
G01X-1789616Y-16452400D02*
G03X-1717784Y-16452400I35916J0D01*
G03X-1789616Y-16452400I-35916J0D01*
G01X-35200Y-16300000D02*
G03X218800Y-16300000I127000J0D01*
G03X-35200Y-16300000I-127000J0D01*
G01X233684Y-16452400D02*
G03X305516Y-16452400I35916J0D01*
G03X233684Y-16452400I-35916J0D01*
G01X233684Y-16147600D02*
G03X305516Y-16147600I35916J0D01*
G03X233684Y-16147600I-35916J0D01*
G01X-121916Y-16147600D02*
G03X-50084Y-16147600I35916J0D01*
G03X-121916Y-16147600I-35916J0D01*
G01X-121916Y-16452400D02*
G03X-50084Y-16452400I35916J0D01*
G03X-121916Y-16452400I-35916J0D01*
G04 Circle End*

G04 Dimension Start*
G54D13*
G01X-4051443Y123072D02*
G01X-4129421Y-40504D01*
G01X-4160409Y123072D02*
G01X-4051443Y123072D01*
G01X-4001405Y-1642D02*
G01X-4009025Y-9262D01*
G01X-4001405Y-17136D01*
G01X-3993531Y-9262D01*
G01X-4001405Y-1642D01*
G01X-3943493Y83956D02*
G01X-3943493Y91830D01*
G01X-3935619Y107324D01*
G01X-3927745Y115198D01*
G01X-3912251Y123072D01*
G01X-3881263Y123072D01*
G01X-3865515Y115198D01*
G01X-3857895Y107324D01*
G01X-3850021Y91830D01*
G01X-3850021Y76336D01*
G01X-3857895Y60842D01*
G01X-3873389Y37474D01*
G01X-3951113Y-40504D01*
G01X-3842147Y-40504D01*
G01X-3752993Y123072D02*
G01X-3776361Y115198D01*
G01X-3792109Y91830D01*
G01X-3799729Y52968D01*
G01X-3799729Y29600D01*
G01X-3792109Y-9262D01*
G01X-3776361Y-32630D01*
G01X-3752993Y-40504D01*
G01X-3737499Y-40504D01*
G01X-3714131Y-32630D01*
G01X-3698637Y-9262D01*
G01X-3690763Y29600D01*
G01X-3690763Y52968D01*
G01X-3698637Y91830D01*
G01X-3714131Y115198D01*
G01X-3737499Y123072D01*
G01X-3752993Y123072D01*
G01X-3601609Y123072D02*
G01X-3624977Y115198D01*
G01X-3640725Y91830D01*
G01X-3648345Y52968D01*
G01X-3648345Y29600D01*
G01X-3640725Y-9262D01*
G01X-3624977Y-32630D01*
G01X-3601609Y-40504D01*
G01X-3586115Y-40504D01*
G01X-3562747Y-32630D01*
G01X-3547253Y-9262D01*
G01X-3539379Y29600D01*
G01X-3539379Y52968D01*
G01X-3547253Y91830D01*
G01X-3562747Y115198D01*
G01X-3586115Y123072D01*
G01X-3601609Y123072D01*
G01X-3496961Y68462D02*
G01X-3496961Y-40504D01*
G01X-3496961Y37474D02*
G01X-3473593Y60842D01*
G01X-3458099Y68462D01*
G01X-3434731Y68462D01*
G01X-3419237Y60842D01*
G01X-3411363Y37474D01*
G01X-3411363Y-40504D01*
G01X-3411363Y37474D02*
G01X-3387995Y60842D01*
G01X-3372501Y68462D01*
G01X-3349133Y68462D01*
G01X-3333639Y60842D01*
G01X-3325765Y37474D01*
G01X-3325765Y-40504D01*
G01X-3283347Y68462D02*
G01X-3283347Y-40504D01*
G01X-3283347Y37474D02*
G01X-3259979Y60842D01*
G01X-3244485Y68462D01*
G01X-3221117Y68462D01*
G01X-3205623Y60842D01*
G01X-3197749Y37474D01*
G01X-3197749Y-40504D01*
G01X-3197749Y37474D02*
G01X-3174381Y60842D01*
G01X-3158887Y68462D01*
G01X-3135519Y68462D01*
G01X-3120025Y60842D01*
G01X-3112151Y37474D01*
G01X-3112151Y-40504D01*
G01X-3996300Y-354400D02*
G01X-3996300Y29600D01*
G01X-3276300Y-357000D02*
G01X-3276300Y29600D01*
G01X-3996300Y-224400D02*
G01X-3922697Y-204678D01*
G01X-3996300Y-224400D02*
G01X-3922697Y-244122D01*
G01X-3276300Y-224400D02*
G01X-3349904Y-204678D01*
G01X-3276300Y-224400D02*
G01X-3349904Y-244122D01*
G01X-3996300Y-224400D02*
G01X-3276300Y-224400D01*
G04 Dimension End*

M02*

